<svg xmlns="http://www.w3.org/2000/svg" xmlns:xlink="http://www.w3.org/1999/xlink" width="1080" zoomAndPan="magnify" viewBox="0 0 810 809.999993" height="1080" preserveAspectRatio="xMidYMid meet" version="1.0"><defs><g/></defs><path fill="#000000" d="M 294.980469 136.96875 C 41.605469 123.679688 9.269531 230.183594 11.785156 293.003906 C 5.796875 363.984375 0.0898438 502.414062 42.785156 534.628906 C 79.066406 562.011719 97.488281 569.042969 159.273438 570.363281 L 133.347656 700.867188 C 131.554688 709.90625 142.015625 716.234375 149.183594 710.453125 L 324.746094 568.566406 C 386.902344 569.464844 487.152344 572.972656 615.746094 584.53125 C 840.128906 604.671875 798.421875 505.375 804.164062 299.578125 C 809.925781 93.792969 651.710938 155.679688 294.980469 136.96875 " fill-opacity="1" fill-rule="nonzero"/><path fill="#ffffff" d="M 179.460938 556.796875 L 160.648438 556.390625 C 101.875 555.121094 87.238281 548.777344 54.796875 524.285156 C 29.644531 505.324219 20.3125 419.242188 30.402344 299.648438 L 30.492188 298.679688 L 30.457031 297.691406 C 29.117188 264.226562 39.105469 236.140625 60.1875 214.203125 C 95.410156 177.515625 160.316406 158.90625 253.117188 158.90625 C 265.992188 158.90625 279.570312 159.277344 293.484375 160.015625 C 375.347656 164.316406 445.65625 164.316406 507.671875 164.332031 C 634.007812 164.367188 717.492188 164.386719 754.707031 202.675781 C 774.222656 222.78125 782.675781 255.082031 781.304688 304.371094 C 780.421875 336 780.667969 365.445312 780.882812 391.417969 C 781.496094 466.484375 781.957031 520.722656 755.289062 547.613281 C 738.207031 564.847656 708.511719 572.882812 661.890625 572.882812 C 647.269531 572.882812 630.628906 572.054688 612.449219 570.433594 C 484.601562 558.945312 384.980469 555.492188 323.917969 554.609375 L 318.210938 554.539062 L 153.464844 687.667969 L 179.460938 556.796875 " fill-opacity="1" fill-rule="nonzero"/><path fill="#000000" d="M 220.65625 175.152344 C 189.605469 185.761719 158.183594 194.730469 126.585938 203.382812 C 122.09375 204.667969 117.710938 206.128906 113.464844 208.035156 C 81.921875 221.445312 60.273438 253.445312 57.597656 287.398438 C 54.867188 318.378906 51.820312 349.355469 47.1875 380.175781 C 46.308594 350.660156 46.941406 321.164062 47.804688 291.734375 C 48 278.113281 50.234375 264.28125 55.675781 251.71875 C 65.523438 227.753906 85.285156 207.824219 109.464844 198.414062 C 114.222656 196.4375 119.257812 194.976562 124.242188 193.8125 C 156.226562 186.800781 188.214844 180.15625 220.65625 175.152344 " fill-opacity="1" fill-rule="nonzero"/><path fill="#000000" d="M 611.113281 552.9375 C 638.304688 549.324219 665.519531 547.386719 692.816406 545.816406 C 694.207031 545.746094 697.589844 545.535156 698.945312 545.480469 C 711.820312 544.8125 724.730469 539.421875 733.574219 530.132812 C 740.335938 523.15625 745.109375 514.152344 746.324219 504.460938 C 747.804688 493.640625 749.300781 482.820312 751.046875 472.019531 C 754.390625 450.433594 758.125 428.882812 762.96875 407.453125 C 762.582031 440.371094 759.992188 473.003906 756.875 505.675781 C 755.800781 517.78125 749.988281 529.234375 741.621094 537.921875 C 730.542969 549.410156 714.9375 555.527344 699.230469 555.648438 C 697.871094 555.667969 694.457031 555.648438 693.082031 555.648438 C 665.730469 555.542969 638.464844 555.085938 611.113281 552.9375 " fill-opacity="1" fill-rule="nonzero"/><g fill="#000000" fill-opacity="1"><g transform="translate(216.122013, 466.076794)"><g><path d="M 25.234375 -30.84375 C 25.234375 -42.925781 28.46875 -52.0625 34.9375 -58.25 C 41.414062 -64.4375 50.835938 -67.53125 63.203125 -67.53125 C 75.140625 -67.53125 84.378906 -64.363281 90.921875 -58.03125 C 97.472656 -51.707031 100.75 -42.644531 100.75 -30.84375 C 100.75 -19.488281 97.441406 -10.535156 90.828125 -3.984375 C 84.210938 2.554688 75.003906 5.828125 63.203125 5.828125 C 51.128906 5.828125 41.78125 2.628906 35.15625 -3.765625 C 28.539062 -10.171875 25.234375 -19.195312 25.234375 -30.84375 Z M 151.015625 -30.84375 C 151.015625 -42.925781 154.25 -52.0625 160.71875 -58.25 C 167.195312 -64.4375 176.691406 -67.53125 189.203125 -67.53125 C 201.140625 -67.53125 210.378906 -64.363281 216.921875 -58.03125 C 223.460938 -51.707031 226.734375 -42.644531 226.734375 -30.84375 C 226.734375 -19.488281 223.425781 -10.535156 216.8125 -3.984375 C 210.195312 2.554688 200.992188 5.828125 189.203125 5.828125 C 176.972656 5.828125 167.550781 2.628906 160.9375 -3.765625 C 154.320312 -10.171875 151.015625 -19.195312 151.015625 -30.84375 Z M 277 -30.84375 C 277 -42.925781 280.234375 -52.0625 286.703125 -58.25 C 293.179688 -64.4375 302.601562 -67.53125 314.96875 -67.53125 C 326.90625 -67.53125 336.144531 -64.363281 342.6875 -58.03125 C 349.238281 -51.707031 352.515625 -42.644531 352.515625 -30.84375 C 352.515625 -19.488281 349.207031 -10.535156 342.59375 -3.984375 C 335.976562 2.554688 326.769531 5.828125 314.96875 5.828125 C 302.894531 5.828125 293.546875 2.628906 286.921875 -3.765625 C 280.304688 -10.171875 277 -19.195312 277 -30.84375 Z M 277 -30.84375 "/></g></g></g></svg>