<svg xmlns="http://www.w3.org/2000/svg" xmlns:xlink="http://www.w3.org/1999/xlink" width="1080" zoomAndPan="magnify" viewBox="0 0 810 809.999993" height="1080" preserveAspectRatio="xMidYMid meet" version="1.0"><defs><clipPath id="3de896cc36"><path d="M 150 493 L 353 493 L 353 764.320312 L 150 764.320312 Z M 150 493 " clip-rule="nonzero"/></clipPath><clipPath id="f5e2a114bf"><path d="M 215 45.820312 L 288 45.820312 L 288 143 L 215 143 Z M 215 45.820312 " clip-rule="nonzero"/></clipPath></defs><path fill="#fecd1a" d="M 528.722656 301.535156 L 487.792969 311.894531 C 450.371094 321.367188 421.128906 357.128906 413.386719 402.894531 L 404.917969 452.953125 L 396.445312 402.894531 C 388.703125 357.128906 359.460938 321.367188 322.039062 311.894531 L 281.109375 301.535156 L 322.039062 291.179688 C 359.460938 281.707031 388.703125 245.945312 396.445312 200.179688 L 404.917969 150.121094 L 413.386719 200.179688 C 421.128906 245.945312 450.371094 281.707031 487.792969 291.179688 Z M 528.722656 301.535156 " fill-opacity="1" fill-rule="nonzero"/><path fill="#fecd1a" d="M 728.542969 512.140625 L 697.367188 518.589844 C 668.867188 524.488281 646.59375 546.757812 640.695312 575.257812 L 634.246094 606.429688 L 627.792969 575.257812 C 621.898438 546.757812 599.625 524.488281 571.125 518.589844 L 539.949219 512.140625 L 571.125 505.691406 C 599.625 499.792969 621.898438 477.523438 627.792969 449.023438 L 634.246094 417.851562 L 640.695312 449.023438 C 646.59375 477.523438 668.867188 499.792969 697.367188 505.691406 Z M 728.542969 512.140625 " fill-opacity="1" fill-rule="nonzero"/><g clip-path="url(#3de896cc36)"><path fill="#fecd1a" d="M 352.585938 639.773438 L 302.472656 645.167969 C 278.640625 650.097656 260.019531 668.71875 255.089844 692.546875 L 249.695312 764.21875 L 244.300781 692.546875 C 239.367188 668.71875 220.746094 650.097656 196.914062 645.167969 L 150.742188 639.773438 L 196.914062 634.378906 C 220.746094 629.449219 239.367188 610.828125 244.300781 587 L 249.695312 493.171875 L 255.089844 587 C 260.019531 610.828125 278.640625 629.449219 302.472656 634.378906 Z M 352.585938 639.773438 " fill-opacity="1" fill-rule="nonzero"/></g><path fill="#fecd1a" d="M 739.699219 258.492188 L 729.144531 261.4375 C 719.496094 264.128906 711.953125 274.296875 709.957031 287.304688 L 707.773438 301.535156 L 705.589844 287.304688 C 703.59375 274.296875 696.050781 264.128906 686.402344 261.4375 L 675.847656 258.492188 L 686.402344 255.546875 C 696.050781 252.855469 703.59375 242.6875 705.589844 229.675781 L 707.773438 215.445312 L 709.957031 229.675781 C 711.953125 242.6875 719.496094 252.855469 729.144531 255.546875 Z M 739.699219 258.492188 " fill-opacity="1" fill-rule="nonzero"/><path fill="#fecd1a" d="M 99.324219 368.308594 L 90.683594 370.71875 C 82.78125 372.921875 76.605469 381.246094 74.972656 391.902344 L 73.183594 403.554688 L 71.394531 391.902344 C 69.757812 381.246094 63.585938 372.921875 55.683594 370.71875 L 47.039062 368.308594 L 55.683594 365.894531 C 63.585938 363.691406 69.757812 355.367188 71.394531 344.714844 L 73.183594 333.0625 L 74.972656 344.714844 C 76.605469 355.367188 82.78125 363.691406 90.683594 365.894531 Z M 99.324219 368.308594 " fill-opacity="1" fill-rule="nonzero"/><g clip-path="url(#f5e2a114bf)"><path fill="#fecd1a" d="M 287.667969 94.363281 L 275.765625 97.683594 C 264.882812 100.71875 256.378906 112.183594 254.125 126.855469 L 251.664062 142.90625 L 249.199219 126.855469 C 246.949219 112.183594 238.445312 100.71875 227.5625 97.683594 L 215.660156 94.363281 L 227.5625 91.042969 C 238.445312 88.007812 246.949219 76.542969 249.199219 61.871094 L 251.664062 45.820312 L 254.125 61.871094 C 256.378906 76.542969 264.882812 88.007812 275.765625 91.042969 Z M 287.667969 94.363281 " fill-opacity="1" fill-rule="nonzero"/></g><path fill="#fecd1a" d="M 613.363281 117.988281 L 607.570312 119.605469 C 602.273438 121.082031 598.136719 126.660156 597.039062 133.800781 L 595.839844 141.613281 L 594.640625 133.800781 C 593.546875 126.660156 589.40625 121.082031 584.113281 119.605469 L 578.320312 117.988281 L 584.113281 116.371094 C 589.40625 114.894531 593.546875 109.3125 594.640625 102.171875 L 595.839844 94.363281 L 597.039062 102.171875 C 598.136719 109.3125 602.273438 114.894531 607.570312 116.371094 Z M 613.363281 117.988281 " fill-opacity="1" fill-rule="nonzero"/></svg>