<svg xmlns="http://www.w3.org/2000/svg" xmlns:xlink="http://www.w3.org/1999/xlink" width="1080" zoomAndPan="magnify" viewBox="0 0 810 809.999993" height="1080" preserveAspectRatio="xMidYMid meet" version="1.0"><defs><clipPath id="52f8303f52"><path d="M 4.175781 102 L 809.675781 102 L 809.675781 810 L 4.175781 810 Z M 4.175781 102 " clip-rule="nonzero"/></clipPath><clipPath id="6fb80008ed"><path d="M 211 216 L 649 216 L 649 799.445312 L 211 799.445312 Z M 211 216 " clip-rule="nonzero"/></clipPath></defs><path fill="#ffffff" d="M 9.207031 900.234375 L 9.207031 107.550781 L 804.644531 107.550781 L 804.644531 900.234375 L 9.207031 900.234375 " fill-opacity="1" fill-rule="nonzero"/><g clip-path="url(#52f8303f52)"><path fill="#682929" d="M 809.421875 102.761719 L 4.425781 102.761719 L 4.425781 905.015625 L 809.421875 905.015625 Z M 799.855469 112.335938 L 799.855469 895.453125 L 13.984375 895.453125 L 13.984375 112.335938 L 799.855469 112.335938 " fill-opacity="1" fill-rule="nonzero"/></g><path fill="#9ed5e1" d="M 60.21875 635.929688 L 60.21875 188.800781 L 747.574219 188.800781 L 747.574219 635.929688 L 60.21875 635.929688 " fill-opacity="1" fill-rule="nonzero"/><path fill="#682929" d="M 752.355469 184.015625 L 55.441406 184.015625 L 55.441406 640.710938 L 752.355469 640.710938 Z M 742.796875 193.589844 L 742.796875 631.136719 L 64.996094 631.136719 L 64.996094 193.589844 L 742.796875 193.589844 " fill-opacity="1" fill-rule="nonzero"/><path fill="#f0f4f9" d="M 127.898438 421.167969 L 243.800781 421.167969 C 243.800781 421.167969 251.125 412.507812 206.488281 414.507812 C 206.488281 414.507812 223.148438 385.847656 190.511719 401.847656 C 190.511719 401.847656 172.53125 368.527344 153.878906 401.847656 C 153.878906 401.847656 133.890625 383.851562 133.890625 414.507812 C 133.890625 414.507812 122.570312 407.84375 127.898438 421.167969 " fill-opacity="1" fill-rule="nonzero"/><path fill="#f0f4f9" d="M 548.789062 438.234375 L 664.675781 438.234375 C 664.675781 438.234375 672 429.574219 627.378906 431.570312 C 627.378906 431.570312 644.035156 402.925781 611.398438 418.914062 C 611.398438 418.914062 593.410156 385.589844 574.757812 418.914062 C 574.757812 418.914062 554.78125 400.914062 554.78125 431.570312 C 554.78125 431.570312 543.460938 424.910156 548.789062 438.234375 " fill-opacity="1" fill-rule="nonzero"/><path fill="#7dcc3b" d="M 64.996094 576.914062 C 64.996094 576.914062 121.863281 402.945312 326.085938 403.269531 C 425.15625 403.417969 618.421875 565.449219 742.796875 576.914062 L 742.796875 631.136719 L 64.996094 631.136719 L 64.996094 576.914062 " fill-opacity="1" fill-rule="nonzero"/><path fill="#f0f4f9" d="M 208.507812 372.246094 L 393.421875 372.246094 C 393.421875 372.246094 405.105469 358.425781 333.902344 361.617188 C 333.902344 361.617188 360.472656 315.894531 308.40625 341.417969 C 308.40625 341.417969 279.710938 288.25 249.964844 341.417969 C 249.964844 341.417969 218.066406 312.703125 218.066406 361.617188 C 218.066406 361.617188 200.015625 350.992188 208.507812 372.246094 " fill-opacity="1" fill-rule="nonzero"/><path fill="#f0f4f9" d="M 514.570312 302.066406 L 699.484375 302.066406 C 699.484375 302.066406 711.167969 288.25 639.964844 291.441406 C 639.964844 291.441406 666.535156 245.71875 614.46875 271.238281 C 614.46875 271.238281 585.765625 218.070312 556.015625 271.238281 C 556.015625 271.238281 524.128906 242.527344 524.128906 291.441406 C 524.128906 291.441406 506.066406 280.8125 514.570312 302.066406 " fill-opacity="1" fill-rule="nonzero"/><path fill="#f68712" d="M 415.296875 208.3125 C 422.632812 189.367188 412.503906 201.746094 403.6875 203.820312 C 399.5625 193.730469 400.058594 164.847656 378.117188 193.902344 C 366.433594 196.503906 358.335938 189.820312 352.566406 184.007812 C 343.460938 186.863281 341.859375 177.195312 340.957031 179.503906 C 340.140625 181.621094 336.707031 190.507812 343.191406 173.753906 C 343.257812 173.574219 339.324219 183.75 349.132812 158.390625 C 345.46875 167.855469 354.53125 144.464844 357.710938 136.285156 C 364.058594 119.910156 371.40625 100.933594 378.289062 83.136719 C 382.585938 72.027344 391.929688 47.902344 390.304688 52.09375 C 399.8125 27.550781 395.246094 39.339844 399.089844 29.390625 C 405.898438 11.832031 403.890625 16.988281 402.496094 20.589844 C 407.53125 7.609375 402.882812 33.410156 414.117188 25.101562 C 429.582031 5.847656 436.441406 15.710938 439.664062 35 C 446.546875 44.808594 454.679688 51.417969 465.214844 44.894531 C 469.59375 54.265625 474.523438 55.308594 476.8125 49.398438 C 476.296875 50.742188 476.800781 49.441406 473.40625 58.199219 C 471.261719 63.765625 468.210938 71.640625 464.625 80.902344 C 455.65625 104.070312 443.328125 135.921875 433.230469 161.988281 C 429.871094 170.671875 426.757812 178.71875 424.101562 185.574219 C 422.117188 190.691406 421.859375 191.355469 417.703125 202.101562 C 422.203125 190.464844 418.445312 200.1875 415.296875 208.3125 " fill-opacity="1" fill-rule="nonzero"/><path fill="#682929" d="M 415.296875 208.3125 L 418.324219 209.484375 C 419.238281 207.140625 419.894531 205.230469 420.34375 203.628906 C 420.796875 202.027344 421.054688 200.757812 421.0625 199.480469 C 421.054688 198.546875 420.945312 197.4375 420.097656 196.300781 C 419.679688 195.742188 419.054688 195.269531 418.433594 195.007812 C 417.800781 194.75 417.199219 194.664062 416.691406 194.664062 C 415.855469 194.675781 415.222656 194.847656 414.632812 195.042969 C 413.609375 195.398438 412.699219 195.871094 411.730469 196.394531 C 410.292969 197.191406 408.765625 198.105469 407.230469 198.910156 C 405.707031 199.707031 404.191406 200.359375 402.9375 200.652344 L 403.6875 203.820312 L 406.695312 202.585938 C 406.125 201.210938 405.566406 199.039062 405.007812 196.644531 C 404.160156 193.03125 403.3125 188.894531 401.828125 185.339844 C 401.066406 183.554688 400.164062 181.878906 398.78125 180.480469 C 398.082031 179.785156 397.242188 179.160156 396.277344 178.71875 C 395.3125 178.277344 394.203125 178.03125 393.097656 178.03125 C 391.714844 178.03125 390.328125 178.386719 388.996094 179 C 386.976562 179.921875 384.988281 181.40625 382.789062 183.511719 C 380.597656 185.617188 378.214844 188.378906 375.527344 191.9375 L 378.117188 193.902344 L 377.417969 190.722656 C 375.863281 191.066406 374.402344 191.214844 373.015625 191.214844 C 369.191406 191.214844 365.917969 190.066406 362.910156 188.28125 C 359.902344 186.511719 357.238281 184.09375 354.886719 181.707031 L 353.492188 180.300781 L 351.601562 180.890625 C 350.6875 181.179688 349.957031 181.277344 349.355469 181.277344 C 348.507812 181.265625 347.9375 181.09375 347.414062 180.816406 C 346.640625 180.40625 345.953125 179.675781 345.351562 178.878906 C 345.050781 178.484375 344.78125 178.085938 344.4375 177.632812 C 344.253906 177.410156 344.0625 177.160156 343.695312 176.828125 C 343.503906 176.667969 343.265625 176.464844 342.890625 176.269531 C 342.515625 176.085938 341.96875 175.882812 341.28125 175.882812 C 340.742188 175.882812 340.164062 176.023438 339.710938 176.257812 C 339.027344 176.625 338.628906 177.085938 338.382812 177.441406 C 338.132812 177.804688 338.015625 178.105469 337.910156 178.375 L 340.957031 179.503906 L 337.929688 178.320312 C 337.488281 179.460938 336.285156 182.566406 336.285156 182.566406 L 339.316406 183.75 L 342.226562 182.285156 L 339.316406 183.75 L 339.316406 187.003906 C 340.226562 186.984375 340.734375 186.683594 341.042969 186.5 C 341.636719 186.101562 341.742188 185.910156 341.871094 185.757812 C 342.074219 185.488281 342.109375 185.414062 342.152344 185.339844 L 342.289062 185.046875 L 342.34375 184.941406 C 342.398438 184.789062 342.632812 184.179688 343.246094 182.621094 C 343.835938 181.074219 344.792969 178.621094 346.222656 174.925781 L 346.445312 174.355469 L 346.445312 173.753906 C 346.445312 173.324219 346.351562 172.710938 346.015625 172.121094 C 345.683594 171.53125 345.125 171.058594 344.640625 170.832031 C 343.824219 170.414062 342.871094 170.371094 342.023438 170.703125 C 341.164062 171.035156 340.484375 171.703125 340.152344 172.5625 L 339.433594 174.433594 L 342.460938 175.613281 L 345.714844 175.613281 L 342.460938 175.613281 L 345.5 176.785156 L 344.265625 176.300781 L 345.5 176.785156 L 344.265625 176.300781 L 345.5 176.785156 C 345.585938 176.570312 346.863281 173.261719 352.171875 159.570312 L 346.101562 157.207031 C 345.5 158.753906 345.242188 159.421875 345.242188 159.421875 L 348.273438 160.601562 L 351.527344 160.601562 C 351.515625 160.335938 351.546875 159.9375 351.183594 159.152344 C 351 158.765625 350.644531 158.269531 350.078125 157.894531 C 349.519531 157.519531 348.808594 157.335938 348.273438 157.347656 L 348.273438 160.601562 L 351.3125 161.785156 C 351.3125 161.773438 352.996094 157.410156 355.027344 152.179688 C 357.058594 146.957031 359.410156 140.875 360.742188 137.457031 C 367.085938 121.082031 374.433594 102.105469 381.316406 84.308594 C 385.28125 74.070312 393.515625 52.78125 393.527344 52.78125 C 394.128906 51.214844 393.441406 49.441406 391.949219 48.699219 L 391.9375 48.6875 C 391.121094 48.28125 390.15625 48.25 389.296875 48.570312 C 388.449219 48.914062 387.761719 49.601562 387.4375 50.472656 C 387.4375 50.472656 387.386719 50.621094 387.257812 50.957031 L 393.335938 53.265625 C 402.839844 28.734375 398.273438 40.511719 402.128906 30.570312 C 403.976562 25.777344 405.179688 22.671875 405.910156 20.773438 C 406.285156 19.828125 406.535156 19.171875 406.695312 18.75 L 406.867188 18.300781 L 406.921875 18.191406 L 406.941406 18.128906 L 406.953125 18.085938 L 406.984375 18 L 407.039062 17.828125 L 407.113281 17.460938 L 403.890625 16.988281 L 406.921875 18.171875 C 407.308594 17.160156 407.179688 16.042969 406.578125 15.152344 C 405.964844 14.261719 404.964844 13.734375 403.890625 13.734375 L 403.890625 16.988281 L 405.339844 14.078125 C 404.558594 13.710938 404.160156 13.753906 403.890625 13.734375 L 403.890625 16.988281 L 405.339844 14.078125 L 403.890625 16.988281 L 406.597656 15.183594 C 406.222656 14.625 405.726562 14.269531 405.339844 14.078125 L 403.890625 16.988281 L 406.597656 15.183594 L 403.890625 16.988281 L 407.144531 16.988281 C 407.15625 16.453125 406.972656 15.742188 406.597656 15.183594 L 403.890625 16.988281 L 407.144531 16.988281 C 407.144531 15.292969 405.835938 13.882812 404.148438 13.746094 C 402.453125 13.605469 400.949219 14.796875 400.679688 16.472656 L 403.890625 16.988281 L 400.777344 16.042969 C 400.753906 16.117188 400.746094 16.117188 400.679688 16.472656 L 403.890625 16.988281 L 400.777344 16.042969 L 403.890625 16.988281 L 400.832031 15.882812 L 400.777344 16.042969 L 403.890625 16.988281 L 400.832031 15.882812 L 403.816406 16.96875 L 400.851562 15.828125 L 400.832031 15.882812 L 403.816406 16.96875 L 400.851562 15.828125 C 400.832031 15.882812 400.078125 17.816406 399.46875 19.429688 L 405.535156 21.769531 C 406.019531 20.492188 406.414062 19.65625 406.597656 19.34375 L 406.671875 19.222656 L 405.382812 18.300781 L 406.351562 19.535156 C 406.621094 19.320312 406.671875 19.214844 406.671875 19.222656 L 405.382812 18.300781 L 406.351562 19.535156 L 404.609375 17.324219 L 404.609375 20.117188 C 405.511719 20.117188 406.105469 19.742188 406.351562 19.535156 L 404.609375 17.324219 L 404.609375 20.117188 L 404.609375 17.152344 L 403.332031 19.835938 C 403.6875 20.007812 404.160156 20.128906 404.609375 20.117188 L 404.609375 17.152344 L 403.332031 19.835938 L 404.492188 17.398438 L 402.226562 18.890625 C 402.367188 19.074219 402.625 19.480469 403.332031 19.835938 L 404.492188 17.398438 L 402.226562 18.890625 L 403.375 18.140625 L 402.085938 18.632812 L 402.226562 18.890625 L 403.375 18.140625 L 402.085938 18.632812 C 402.097656 18.644531 402.171875 18.878906 402.25 19.214844 C 402.386719 19.804688 402.550781 20.6875 402.773438 21.675781 C 403.117188 23.15625 403.546875 24.867188 404.503906 26.53125 C 404.996094 27.371094 405.652344 28.21875 406.621094 28.90625 C 407.574219 29.605469 408.875 30.046875 410.175781 30.035156 C 411.207031 30.035156 412.203125 29.796875 413.171875 29.390625 C 414.136719 28.992188 415.070312 28.433594 416.039062 27.714844 L 416.382812 27.464844 L 416.648438 27.132812 C 419.464844 23.628906 421.921875 21.222656 423.921875 19.785156 C 425.929688 18.332031 427.390625 17.925781 428.269531 17.933594 C 429 17.945312 429.503906 18.128906 430.246094 18.699219 C 431.320312 19.535156 432.628906 21.511719 433.703125 24.445312 C 434.808594 27.371094 435.722656 31.171875 436.453125 35.527344 L 436.570312 36.257812 L 436.992188 36.859375 C 439.601562 40.554688 442.402344 43.917969 445.65625 46.476562 C 448.890625 49.011719 452.714844 50.761719 456.964844 50.75 C 460.230469 50.761719 463.59375 49.71875 466.921875 47.65625 L 465.214844 44.894531 L 462.261719 46.269531 C 463.667969 49.269531 465.148438 51.601562 466.824219 53.332031 C 467.664062 54.191406 468.554688 54.910156 469.5625 55.449219 C 470.5625 55.972656 471.699219 56.316406 472.902344 56.316406 C 474.566406 56.339844 476.199219 55.597656 477.328125 54.523438 C 478.464844 53.449219 479.25 52.105469 479.851562 50.578125 L 473.785156 48.226562 C 473.269531 49.570312 473.761719 48.257812 470.378906 57.027344 C 468.222656 62.582031 465.171875 70.457031 461.582031 79.722656 C 452.628906 102.890625 440.289062 134.738281 430.191406 160.808594 C 426.839844 169.488281 423.726562 177.539062 421.0625 184.394531 C 419.078125 189.519531 418.832031 190.183594 414.664062 200.917969 L 420.730469 203.273438 C 422.222656 199.414062 422.816406 197.898438 422.816406 197.898438 C 423.199219 196.902344 423.070312 195.785156 422.460938 194.890625 C 421.847656 194 420.847656 193.472656 419.773438 193.472656 L 419.773438 196.730469 L 421.234375 193.816406 C 420.453125 193.453125 420.042969 193.496094 419.773438 193.472656 L 419.773438 196.730469 L 421.234375 193.816406 L 419.773438 196.730469 L 422.480469 194.921875 C 422.105469 194.355469 421.613281 194.011719 421.234375 193.816406 L 419.773438 196.730469 L 422.480469 194.921875 L 419.773438 196.730469 L 423.027344 196.730469 C 423.039062 196.191406 422.867188 195.484375 422.480469 194.921875 L 419.773438 196.730469 L 423.027344 196.730469 C 423.027344 195.160156 421.914062 193.816406 420.375 193.527344 C 418.839844 193.246094 417.304688 194.097656 416.746094 195.558594 C 416.746094 195.558594 414.363281 201.703125 412.257812 207.140625 L 418.324219 209.484375 L 415.296875 208.3125 L 418.324219 209.484375 C 419.378906 206.765625 420.496094 203.875 421.355469 201.660156 C 421.785156 200.554688 422.148438 199.609375 422.40625 198.953125 C 422.535156 198.621094 422.632812 198.363281 422.707031 198.179688 L 422.78125 197.976562 L 422.804688 197.910156 L 422.816406 197.890625 L 422.824219 197.878906 L 422.824219 197.847656 L 422.847656 197.804688 L 422.878906 197.707031 L 422.921875 197.566406 L 419.773438 196.730469 L 416.519531 196.730469 C 416.511719 197.265625 416.683594 197.976562 417.070312 198.535156 C 417.347656 198.953125 417.703125 199.265625 418.015625 199.46875 C 418.496094 199.769531 418.875 199.867188 419.152344 199.921875 C 419.429688 199.972656 419.625 199.984375 419.773438 199.984375 L 419.773438 196.730469 L 416.746094 195.558594 C 416.746094 195.558594 416.15625 197.0625 414.664062 200.917969 L 420.730469 203.273438 C 424.886719 192.539062 425.144531 191.871094 427.132812 186.746094 C 429.785156 179.890625 432.898438 171.84375 436.261719 163.160156 C 446.355469 137.089844 458.683594 105.242188 467.652344 82.074219 C 471.238281 72.8125 474.289062 64.9375 476.445312 59.378906 C 479.832031 50.613281 479.324219 51.921875 479.851562 50.570312 L 473.785156 48.214844 C 473.441406 49.109375 473.0625 49.601562 472.890625 49.753906 L 472.804688 49.828125 L 472.785156 49.839844 L 472.902344 50.074219 L 472.902344 49.816406 L 472.785156 49.839844 L 472.902344 50.074219 L 472.902344 49.816406 L 472.902344 49.859375 L 472.914062 49.816406 L 472.902344 49.816406 L 472.902344 49.859375 L 472.914062 49.816406 C 472.890625 49.804688 472.742188 49.785156 472.453125 49.601562 C 472.023438 49.34375 471.347656 48.730469 470.582031 47.722656 C 469.832031 46.710938 468.992188 45.304688 468.15625 43.519531 L 466.609375 40.199219 L 463.496094 42.125 C 460.972656 43.679688 458.855469 44.238281 456.964844 44.25 C 454.515625 44.238281 452.164062 43.285156 449.664062 41.339844 C 447.183594 39.40625 444.703125 36.515625 442.316406 33.117188 L 439.664062 35 L 442.863281 34.449219 C 441.824219 28.28125 440.460938 22.964844 438.355469 18.847656 C 437.28125 16.796875 436.011719 15.011719 434.339844 13.636719 C 432.695312 12.273438 430.535156 11.402344 428.269531 11.421875 C 425.488281 11.433594 422.804688 12.574219 420.117188 14.507812 C 417.421875 16.453125 414.632812 19.257812 411.582031 23.0625 L 414.117188 25.101562 L 412.183594 22.480469 C 411.539062 22.953125 411.023438 23.234375 410.679688 23.382812 C 410.335938 23.523438 410.175781 23.523438 410.175781 23.523438 L 410.175781 23.910156 L 410.367188 23.585938 L 410.175781 23.523438 L 410.175781 23.910156 L 410.367188 23.585938 C 410.292969 23.535156 409.980469 23.082031 409.722656 22.371094 C 409.316406 21.296875 409.015625 19.785156 408.734375 18.429688 C 408.585938 17.730469 408.457031 17.097656 408.1875 16.355469 C 408.035156 15.980469 407.875 15.558594 407.4375 15 C 407.210938 14.722656 406.910156 14.398438 406.425781 14.109375 C 405.941406 13.820312 405.277344 13.605469 404.609375 13.605469 C 403.914062 13.605469 403.3125 13.820312 402.882812 14.054688 C 402.128906 14.484375 401.796875 14.914062 401.496094 15.28125 C 401.066406 15.851562 400.789062 16.386719 400.464844 17.054688 C 400.152344 17.710938 399.832031 18.484375 399.46875 19.417969 L 405.535156 21.761719 C 405.855469 20.945312 406.199219 20.042969 406.46875 19.34375 C 406.597656 19 406.714844 18.707031 406.792969 18.492188 L 406.886719 18.246094 L 406.929688 18.160156 L 406.929688 18.148438 L 406.941406 18.128906 L 406.953125 18.085938 L 406.972656 18.011719 L 407.015625 17.890625 L 407.058594 17.710938 L 403.890625 16.988281 L 400.636719 16.988281 C 400.625 17.527344 400.796875 18.234375 401.183594 18.792969 C 401.464844 19.214844 401.820312 19.527344 402.128906 19.730469 C 402.613281 20.03125 402.988281 20.128906 403.269531 20.191406 C 403.546875 20.234375 403.742188 20.246094 403.890625 20.246094 L 403.890625 16.988281 L 400.863281 15.816406 C 400.851562 15.816406 399.769531 18.632812 396.050781 28.21875 C 392.207031 38.167969 396.769531 26.382812 387.265625 50.921875 L 390.304688 52.09375 L 393.355469 53.234375 C 393.472656 52.902344 393.539062 52.75 393.539062 52.75 L 390.488281 51.613281 L 389.039062 54.511719 L 389.039062 54.523438 L 390.488281 51.613281 L 387.460938 50.429688 L 387.460938 50.441406 C 387.191406 51.105469 379.160156 71.878906 375.25 81.96875 C 368.367188 99.761719 361.019531 118.738281 354.683594 135.105469 L 354.683594 135.09375 C 352.019531 141.9375 345.242188 159.429688 345.242188 159.429688 C 344.847656 160.429688 344.984375 161.558594 345.585938 162.441406 C 346.199219 163.332031 347.199219 163.859375 348.273438 163.859375 L 348.273438 160.601562 L 346.46875 163.3125 C 347.027344 163.699219 347.734375 163.871094 348.273438 163.859375 L 348.273438 160.601562 L 346.46875 163.3125 L 348.273438 160.601562 L 345.535156 162.363281 C 345.738281 162.675781 346.050781 163.03125 346.46875 163.3125 L 348.273438 160.601562 L 345.535156 162.363281 L 348.273438 160.601562 L 345.082031 161.226562 C 345.136719 161.503906 345.234375 161.882812 345.535156 162.363281 L 348.273438 160.601562 L 345.082031 161.226562 L 348.273438 160.601562 L 345.019531 160.601562 C 345.027344 160.753906 345.027344 160.957031 345.082031 161.226562 L 348.273438 160.601562 L 345.019531 160.601562 C 345.019531 162.171875 346.136719 163.515625 347.671875 163.804688 C 349.207031 164.09375 350.742188 163.246094 351.3125 161.785156 C 351.3125 161.785156 351.570312 161.117188 352.171875 159.558594 L 346.101562 157.207031 C 340.625 171.347656 339.433594 174.433594 339.433594 174.441406 C 339.28125 174.820312 339.207031 175.195312 339.207031 175.613281 C 339.207031 177.171875 340.335938 178.527344 341.871094 178.816406 C 343.40625 179.09375 344.933594 178.246094 345.5 176.785156 C 345.5 176.785156 345.683594 176.324219 345.867188 175.851562 L 346.113281 175.207031 L 346.199219 174.992188 L 346.222656 174.925781 L 346.222656 174.914062 L 343.191406 173.746094 L 341.730469 176.65625 L 343.179688 173.746094 L 340.367188 175.355469 C 340.691406 175.945312 341.25 176.421875 341.730469 176.65625 L 343.179688 173.746094 L 340.367188 175.355469 L 343.179688 173.753906 L 339.9375 173.753906 C 339.9375 174.175781 340.035156 174.765625 340.367188 175.355469 L 343.179688 173.753906 L 339.9375 173.753906 L 343.191406 173.753906 L 340.152344 172.574219 C 337.167969 180.300781 336.285156 182.554688 336.277344 182.566406 C 335.941406 183.425781 335.996094 184.382812 336.40625 185.199219 C 336.972656 186.347656 338.1875 187.058594 339.464844 186.992188 C 340.753906 186.941406 341.882812 186.125 342.34375 184.929688 C 342.34375 184.917969 343.558594 181.824219 343.996094 180.6875 L 344.019531 180.632812 L 341.753906 179.792969 L 343.535156 181.394531 C 343.902344 180.964844 343.964844 180.730469 344.019531 180.632812 L 341.753906 179.792969 L 343.535156 181.394531 L 341.324219 179.417969 L 342.675781 182.0625 C 343.074219 181.855469 343.351562 181.597656 343.535156 181.394531 L 341.324219 179.417969 L 342.675781 182.0625 L 341.28125 179.332031 L 341.28125 182.394531 C 341.753906 182.394531 342.28125 182.265625 342.675781 182.0625 L 341.28125 179.332031 L 341.28125 182.394531 L 341.28125 179.460938 L 339.679688 181.933594 C 339.9375 182.09375 340.464844 182.382812 341.28125 182.394531 L 341.28125 179.460938 L 339.679688 181.933594 L 340.882812 180.085938 L 339.292969 181.609375 C 339.335938 181.664062 339.433594 181.761719 339.679688 181.933594 L 340.882812 180.085938 L 339.292969 181.609375 L 339.839844 181.082031 L 339.261719 181.578125 L 339.292969 181.609375 L 339.839844 181.082031 L 339.261719 181.578125 C 339.28125 181.597656 339.636719 182.09375 340.066406 182.683594 C 340.753906 183.597656 341.765625 184.84375 343.289062 185.910156 C 344.804688 186.972656 346.90625 187.800781 349.355469 187.789062 C 350.675781 187.789062 352.074219 187.5625 353.546875 187.101562 L 352.566406 184.007812 L 350.257812 186.296875 C 352.78125 188.84375 355.84375 191.65625 359.589844 193.882812 C 363.328125 196.117188 367.839844 197.738281 373.015625 197.726562 C 374.875 197.726562 376.816406 197.523438 378.824219 197.082031 L 379.996094 196.824219 L 380.714844 195.859375 C 384.097656 191.378906 386.890625 188.402344 389.027344 186.660156 C 390.101562 185.789062 391.003906 185.242188 391.679688 184.929688 C 392.378906 184.609375 392.828125 184.542969 393.097656 184.542969 C 393.386719 184.554688 393.507812 184.585938 393.753906 184.738281 C 394.160156 184.960938 394.890625 185.789062 395.546875 187.230469 C 396.554688 189.359375 397.394531 192.570312 398.136719 195.816406 C 398.910156 199.070312 399.585938 202.339844 400.679688 205.046875 L 401.734375 207.625 L 404.429688 206.980469 C 407.628906 206.207031 410.476562 204.582031 412.847656 203.25 C 414.019531 202.574219 415.0625 201.972656 415.832031 201.597656 C 416.21875 201.402344 416.53125 201.273438 416.714844 201.210938 L 416.863281 201.167969 L 416.691406 200.308594 L 416.691406 201.175781 L 416.863281 201.167969 L 416.691406 200.308594 L 416.691406 201.175781 L 416.691406 199.136719 L 415.898438 201.015625 C 416.253906 201.15625 416.542969 201.175781 416.691406 201.175781 L 416.691406 199.136719 L 415.898438 201.015625 L 416.800781 198.890625 L 414.695312 199.855469 C 414.835938 200.230469 415.359375 200.8125 415.898438 201.015625 L 416.800781 198.890625 L 414.695312 199.855469 L 416.082031 199.222656 L 414.566406 199.480469 L 414.695312 199.855469 L 416.082031 199.222656 L 414.566406 199.480469 C 414.578125 199.707031 414.460938 200.574219 414.082031 201.867188 C 413.71875 203.164062 413.128906 204.90625 412.257812 207.140625 L 418.324219 209.484375 L 415.296875 208.3125 " fill-opacity="1" fill-rule="nonzero"/><path fill="#9b9ea5" d="M 310.339844 221.097656 C 259.648438 198.667969 136.003906 321.496094 279.367188 390.871094 L 356.835938 322.902344 C 356.835938 322.886719 361.015625 243.53125 310.339844 221.097656 Z M 332.992188 330.417969 C 317.96875 338.800781 305.132812 350.550781 294.542969 364.179688 C 288.183594 362.125 282.195312 358.921875 277 354.703125 C 264.464844 344.519531 256.835938 328.28125 257.945312 312.179688 C 259.054688 296.074219 269.238281 280.6875 284.035156 274.195312 C 298.816406 267.707031 317.574219 270.9375 328.734375 282.59375 C 337.765625 292.03125 342.433594 301.386719 344.734375 314.261719 C 345.328125 317.628906 345.613281 321.0625 345.585938 324.496094 C 341.433594 326.089844 337.226562 328.039062 332.992188 330.417969 Z M 609.480469 327.808594 C 556.261719 312.339844 508.328125 375.726562 508.328125 375.726562 L 523.800781 477.609375 C 678.171875 516.851562 662.703125 343.277344 609.480469 327.808594 Z M 590.898438 431.191406 C 581.363281 444.226562 565.066406 451.730469 548.917969 451.449219 C 541.558594 451.3125 534.230469 449.636719 527.519531 446.605469 C 527.695312 426.066406 523.910156 405.554688 514.902344 387.195312 C 514.726562 386.84375 514.535156 386.503906 514.347656 386.152344 C 516.917969 382.746094 519.894531 379.621094 523.152344 376.90625 C 533.199219 368.535156 542.789062 364.398438 555.789062 362.992188 C 571.839844 361.261719 588.261719 370.875 595.402344 385.355469 C 602.542969 399.835938 600.417969 418.171875 590.898438 431.191406 Z M 590.898438 431.191406 " fill-opacity="1" fill-rule="nonzero"/><path fill="#848891" d="M 514.902344 387.207031 C 502.335938 361.613281 480.5625 347.347656 455.796875 337.367188 C 459.246094 335.339844 461.613281 332.417969 459.195312 329.566406 C 457.03125 327.011719 452.445312 328.160156 449.765625 328.984375 C 449.265625 329.132812 448.777344 329.308594 448.292969 329.457031 C 449.605469 328.566406 450.847656 327.578125 452 326.484375 C 452.890625 325.632812 453.378906 324.683594 453.554688 323.710938 C 453.757812 323.429688 453.960938 323.15625 454.148438 322.859375 C 456.476562 319.277344 456.230469 314.410156 452.269531 312.109375 C 448.578125 309.960938 444.140625 311.3125 441.273438 314.179688 C 441.164062 314.289062 441.054688 314.394531 440.949219 314.515625 C 440.082031 315.125 439.257812 315.855469 438.339844 316.585938 C 436.226562 318.25 434.011719 319.710938 431.644531 320.96875 C 429.03125 322.359375 426.113281 323.320312 423.136719 323.683594 C 425.058594 322.699219 426.867188 321.414062 428.480469 320.019531 C 430.359375 318.398438 433.402344 315.773438 432.402344 313.003906 C 432.023438 311.960938 431.277344 311.152344 430.101562 311.109375 C 428.019531 311.027344 427.167969 312.246094 425.910156 313.664062 C 424.597656 315.140625 423.148438 316.519531 421.527344 317.667969 C 420.027344 318.734375 418.390625 319.667969 416.710938 320.414062 C 416.480469 320.519531 415.710938 320.859375 414.84375 321.210938 C 414.765625 321.265625 414.683594 321.304688 414.574219 321.359375 C 414.15625 321.535156 413.683594 321.695312 413.183594 321.820312 C 412.707031 321.96875 412.289062 322.0625 412.019531 322.0625 C 410.246094 322.386719 408.542969 322.453125 408.542969 322.453125 C 383.222656 316.519531 359.054688 315.871094 333.019531 330.390625 C 307.890625 344.414062 288.847656 367.792969 276.335938 393.710938 C 265.042969 417.128906 258.796875 444.902344 268.425781 469.066406 C 274.726562 484.886719 287.292969 497.582031 301.507812 506.9375 C 315.734375 516.296875 331.679688 522.664062 347.492188 528.964844 C 357.851562 533.089844 347.761719 529.355469 358.121094 533.496094 L 368.507812 536.292969 L 378.652344 539.902344 C 389.527344 542.40625 379.097656 539.726562 389.972656 542.230469 C 406.566406 546.042969 423.296875 549.882812 440.328125 550.273438 C 457.355469 550.667969 474.910156 547.378906 489.097656 537.957031 C 510.761719 523.570312 521.433594 497.191406 525.476562 471.5 C 529.941406 443.089844 527.589844 413.035156 514.902344 387.207031 Z M 514.902344 387.207031 " fill-opacity="1" fill-rule="nonzero"/><path fill="#777c85" d="M 590.898438 431.191406 C 581.363281 444.226562 565.066406 451.730469 548.917969 451.449219 C 541.558594 451.3125 534.230469 449.636719 527.519531 446.605469 C 527.695312 426.066406 523.910156 405.554688 514.902344 387.195312 C 514.726562 386.84375 514.535156 386.503906 514.347656 386.152344 C 516.917969 382.746094 519.894531 379.621094 523.152344 376.90625 C 533.199219 368.535156 542.789062 364.398438 555.789062 362.992188 C 571.839844 361.261719 588.261719 370.875 595.402344 385.355469 C 602.542969 399.835938 600.417969 418.171875 590.898438 431.191406 Z M 328.734375 282.582031 C 317.574219 270.910156 298.816406 267.691406 284.035156 274.183594 C 269.25 280.671875 259.054688 296.0625 257.945312 312.164062 C 256.835938 328.269531 264.464844 344.507812 277 354.6875 C 282.195312 358.90625 288.183594 362.113281 294.542969 364.167969 C 305.117188 350.550781 317.953125 338.800781 332.992188 330.40625 C 337.238281 328.039062 341.433594 326.078125 345.585938 324.46875 C 345.613281 321.035156 345.328125 317.601562 344.734375 314.234375 C 342.433594 301.375 337.765625 292.03125 328.734375 282.582031 Z M 275.835938 669.273438 C 276.566406 650.96875 278.894531 632.78125 280.679688 614.554688 C 281.855469 602.519531 287.375 583.089844 273.511719 576.371094 C 243.539062 561.863281 228.039062 613.324219 226 632.671875 C 223.089844 660.269531 225.835938 689.015625 238.089844 713.921875 C 245.921875 729.851562 257.984375 743.992188 272.753906 753.660156 C 266.085938 753.632812 259.863281 755.054688 253.738281 757.851562 C 249.097656 759.976562 240.335938 764.425781 242.863281 770.914062 C 243.417969 772.335938 244.472656 773.0625 245.90625 773.023438 C 246.460938 773.1875 247.054688 773.199219 247.636719 773.023438 C 248.246094 772.835938 248.84375 772.644531 249.4375 772.441406 C 251.535156 772.050781 253.628906 771.589844 255.699219 771.078125 C 254.265625 772.308594 252.941406 773.632812 251.722656 775.066406 C 249.992188 777.105469 250.953125 781.054688 254.117188 780.839844 C 259.390625 780.472656 264.515625 779.417969 269.398438 777.703125 C 267.613281 780.066406 265.113281 783.421875 265.773438 786.328125 C 266.558594 789.695312 270.304688 790.261719 273.050781 789.167969 C 276.230469 787.898438 279.257812 785.058594 281.828125 782.855469 C 287.78125 777.78125 292.824219 771.683594 296.882812 765.003906 C 296.976562 764.855469 297.03125 764.695312 297.085938 764.53125 C 298.058594 764.789062 299.046875 765.03125 300.046875 765.25 C 279.300781 738.691406 274.5 702.941406 275.835938 669.273438 Z M 275.835938 669.273438 " fill-opacity="1" fill-rule="nonzero"/><path fill="#848891" d="M 451.320312 593.878906 C 460.789062 610.714844 472 626.765625 478.464844 644.964844 C 488.527344 673.238281 486.011719 705.742188 471.71875 732.121094 C 457.421875 758.515625 431.574219 778.378906 402.390625 785.394531 C 394.910156 787.195312 385.550781 787.53125 381.101562 781.257812 C 375.5 773.402344 382.25 763.003906 387.863281 755.148438 C 405.664062 730.242188 413.535156 699.359375 415.441406 668.816406 C 417.335938 638.269531 413.628906 607.6875 410.152344 577.277344 C 408.976562 567 407.976562 555.941406 413.046875 546.921875 C 420.324219 533.980469 432.605469 534.222656 435.132812 548.097656 C 438.148438 564.714844 443.003906 579.074219 451.320312 593.878906 Z M 451.320312 593.878906 " fill-opacity="1" fill-rule="nonzero"/><path fill="#848891" d="M 568.988281 678.226562 C 561.996094 698.25 549.160156 715.71875 535.027344 731.539062 C 522.394531 745.671875 508.464844 758.867188 492.382812 768.84375 C 496.292969 771.457031 500.214844 774.039062 504.121094 776.632812 C 506.257812 778.054688 506.449219 782.378906 503.3125 782.800781 C 499.523438 783.3125 495.46875 782.894531 491.773438 781.570312 C 491.882812 781.730469 491.992188 781.894531 492.085938 782.054688 C 493.65625 784.613281 491.855469 787.53125 489.394531 788.179688 C 488.675781 789.722656 487.109375 790.75 485.078125 789.992188 C 482.347656 788.964844 479.765625 787.707031 477.332031 786.246094 C 477.613281 788.140625 477.355469 790.035156 476.097656 791.832031 C 475.152344 793.199219 473.109375 794.101562 471.582031 793.023438 C 471.109375 792.683594 470.648438 792.34375 470.203125 791.980469 C 469.308594 791.738281 468.511719 791.210938 468.023438 790.425781 C 467.863281 790.15625 467.699219 789.871094 467.523438 789.601562 C 463.386719 785.476562 460.207031 780.09375 459.273438 774.375 C 457.53125 773.226562 456.042969 771.765625 454.945312 769.96875 C 454.109375 768.574219 453.539062 767.113281 453.214844 765.613281 C 438.730469 769.925781 423.515625 772.238281 408.554688 774.429688 C 389.972656 777.148438 370.09375 779.691406 353.1875 771.253906 C 349.914062 769.617188 346.882812 767.628906 344.054688 765.371094 C 343.933594 765.804688 343.8125 766.25 343.664062 766.667969 C 339.390625 778.214844 318.820312 785.003906 307.28125 780.675781 C 287.183594 773.132812 275.890625 751.902344 269.15625 731.527344 C 247.910156 667.164062 255.457031 593.894531 289.375 535.210938 C 294.164062 526.9375 300.9375 517.703125 310.296875 514.160156 C 311.042969 513.875 311.71875 513.644531 312.328125 513.441406 C 308.621094 511.441406 304.984375 509.316406 301.46875 506.992188 C 287.238281 497.636719 274.6875 484.9375 268.386719 469.121094 C 258.753906 444.957031 265.003906 417.199219 276.296875 393.765625 C 288.792969 367.84375 307.835938 344.46875 332.980469 330.445312 C 359.015625 315.910156 383.183594 316.574219 408.503906 322.507812 C 408.503906 322.507812 410.207031 322.441406 411.976562 322.117188 C 412.25 322.117188 412.667969 322.023438 413.140625 321.871094 C 413.640625 321.75 414.128906 321.589844 414.535156 321.414062 C 414.644531 321.371094 414.722656 321.320312 414.804688 321.265625 C 415.671875 320.914062 416.441406 320.5625 416.671875 320.464844 C 418.347656 319.710938 419.984375 318.777344 421.484375 317.722656 C 423.09375 316.574219 424.554688 315.195312 425.867188 313.71875 C 427.125 312.300781 427.992188 311.082031 430.0625 311.164062 C 431.238281 311.203125 431.980469 312.015625 432.359375 313.058594 C 433.359375 315.828125 430.332031 318.4375 428.4375 320.074219 C 426.828125 321.46875 425.015625 322.75 423.09375 323.738281 C 426.070312 323.375 428.992188 322.414062 431.601562 321.019531 C 433.96875 319.761719 436.1875 318.304688 438.296875 316.640625 C 439.21875 315.910156 440.027344 315.179688 440.90625 314.570312 C 441.015625 314.464844 441.109375 314.339844 441.230469 314.234375 C 444.101562 311.378906 448.535156 310.027344 452.226562 312.164062 C 456.191406 314.464844 456.433594 319.316406 454.109375 322.914062 C 453.917969 323.199219 453.714844 323.480469 453.511719 323.765625 C 453.335938 324.726562 452.863281 325.6875 451.957031 326.539062 C 450.808594 327.632812 449.5625 328.621094 448.25 329.511719 C 448.738281 329.351562 449.238281 329.1875 449.726562 329.039062 C 452.402344 328.214844 456.988281 327.078125 459.152344 329.621094 C 461.574219 332.472656 459.207031 335.40625 455.757812 337.421875 C 480.523438 347.402344 502.296875 361.664062 514.863281 387.261719 C 527.546875 413.085938 529.902344 443.144531 525.425781 471.582031 C 521.378906 497.269531 510.710938 523.652344 489.042969 538.039062 C 487.757812 538.890625 486.445312 539.671875 485.105469 540.429688 C 486.960938 545.757812 487.796875 552.761719 491.179688 559.265625 C 496.347656 569.191406 502.285156 578.667969 507.9375 588.324219 C 510.195312 587.648438 512.546875 587.105469 515.023438 586.78125 C 536.054688 584.050781 557.179688 597.558594 566.863281 616.433594 C 576.574219 635.242188 575.980469 658.199219 568.988281 678.226562 Z M 568.988281 678.226562 " fill-opacity="1" fill-rule="nonzero"/><path fill="#d8adae" d="M 327.257812 469.390625 C 326.527344 467.550781 325.296875 465.765625 323.5 464.171875 C 320.335938 461.359375 316.289062 459.734375 312.257812 458.453125 C 308.460938 457.246094 304.414062 456.289062 300.507812 457.03125 C 290.023438 459.03125 289.644531 471.308594 296.273438 477.679688 C 301.46875 482.679688 310.730469 485.386719 317.820312 484.277344 C 326 482.992188 329.84375 475.90625 327.257812 469.390625 Z M 464.859375 512.347656 C 464.128906 510.507812 462.898438 508.722656 461.101562 507.128906 C 457.9375 504.316406 453.890625 502.691406 449.859375 501.410156 C 446.0625 500.203125 442.015625 499.246094 438.109375 499.988281 C 427.625 501.988281 427.246094 514.265625 433.875 520.636719 C 439.070312 525.636719 448.332031 528.34375 455.421875 527.234375 C 463.601562 525.964844 467.445312 518.863281 464.859375 512.347656 Z M 464.859375 512.347656 " fill-opacity="1" fill-rule="nonzero"/><path fill="#9b9ea5" d="M 418.566406 517.132812 C 418.929688 524.164062 418.390625 531.613281 414.667969 537.605469 C 411.816406 542.214844 408.582031 544.8125 404.554688 545.648438 C 400.617188 587.011719 411.976562 629.15625 413.222656 671.15625 C 413.761719 689.339844 411.519531 709.621094 399.035156 721.492188 C 385.347656 734.515625 363.398438 732 348.925781 720.0625 C 334.453125 708.121094 326.285156 688.988281 321.265625 669.828125 C 316.667969 652.265625 314.34375 633.996094 314.222656 615.71875 C 314.019531 583.914062 320.457031 551.949219 333.238281 523.421875 C 333.25 523.378906 333.277344 523.339844 333.289062 523.300781 C 330.546875 520.242188 329.53125 516.132812 329.789062 511.101562 C 330.152344 504.058594 333.941406 497.636719 338.242188 492.050781 C 343.921875 484.667969 350.925781 478.015625 359.5 474.636719 C 366.546875 471.863281 374.769531 471.621094 381.492188 474.757812 C 383.0625 474.648438 384.632812 474.648438 386.199219 474.730469 L 386.402344 474.09375 C 386.835938 474.324219 387.269531 474.582031 387.703125 474.824219 C 388.203125 474.867188 388.6875 474.90625 389.1875 474.960938 L 388.984375 475.597656 C 390.3125 476.421875 391.609375 477.328125 392.839844 478.300781 C 400.144531 479.542969 406.785156 484.414062 410.992188 490.714844 C 416.117188 498.378906 418.089844 507.832031 418.566406 517.132812 Z M 329.867188 419.144531 C 332.195312 418.886719 334.75 418.132812 336.589844 416.671875 C 338.132812 415.453125 339.160156 413.738281 339.105469 411.410156 C 339.066406 409.519531 338.050781 408.03125 336.617188 407.058594 C 336.359375 406.8125 336.078125 406.597656 335.765625 406.394531 C 330.085938 402.703125 316.722656 410.695312 323.105469 417.128906 C 324.824219 418.859375 327.449219 419.414062 329.867188 419.144531 Z M 462.941406 446.105469 C 462.574219 446.09375 462.210938 446.121094 461.871094 446.175781 C 460.140625 446.160156 458.464844 446.808594 457.355469 448.335938 C 455.988281 450.21875 455.851562 452.203125 456.433594 454.082031 C 457.109375 456.316406 458.789062 458.398438 460.546875 459.9375 C 462.386719 461.535156 464.859375 462.574219 467.242188 462.128906 C 476.152344 460.480469 469.714844 446.296875 462.941406 446.105469 Z M 462.941406 446.105469 " fill-opacity="1" fill-rule="nonzero"/><g clip-path="url(#6fb80008ed)"><path fill="#160035" d="M 324.445312 463.101562 C 320.929688 459.980469 316.535156 458.316406 312.691406 457.085938 C 308.960938 455.894531 304.550781 454.800781 300.234375 455.625 C 295.53125 456.53125 292.230469 459.382812 290.957031 463.65625 C 289.457031 468.726562 291.1875 474.773438 295.285156 478.707031 C 299.925781 483.167969 307.527344 485.953125 314.4375 485.953125 C 315.667969 485.953125 316.871094 485.859375 318.046875 485.683594 C 322.472656 484.992188 326 482.707031 327.960938 479.273438 C 329.746094 476.136719 329.992188 472.335938 328.597656 468.847656 C 327.746094 466.726562 326.351562 464.792969 324.445312 463.101562 Z M 325.472656 477.867188 C 323.945312 480.546875 321.160156 482.316406 317.601562 482.871094 C 310.8125 483.9375 302.0625 481.261719 297.261719 476.652344 C 293.972656 473.488281 292.5 468.484375 293.691406 464.480469 C 294.636719 461.277344 297.152344 459.128906 300.761719 458.4375 C 301.617188 458.277344 302.496094 458.207031 303.375 458.207031 C 306.269531 458.207031 309.214844 458.992188 311.828125 459.816406 C 315.382812 460.9375 319.441406 462.46875 322.550781 465.238281 C 324.121094 466.632812 325.257812 468.199219 325.933594 469.917969 C 327.015625 472.636719 326.839844 475.449219 325.472656 477.867188 Z M 462.046875 506.058594 C 458.53125 502.9375 454.136719 501.273438 450.292969 500.042969 C 446.5625 498.851562 442.152344 497.757812 437.835938 498.582031 C 433.132812 499.488281 429.832031 502.339844 428.558594 506.613281 C 427.058594 511.683594 428.789062 517.730469 432.886719 521.664062 C 437.527344 526.125 445.128906 528.910156 452.039062 528.910156 C 453.269531 528.910156 454.488281 528.816406 455.648438 528.640625 C 460.074219 527.949219 463.601562 525.664062 465.5625 522.230469 C 467.347656 519.09375 467.59375 515.292969 466.199219 511.804688 C 465.347656 509.695312 463.953125 507.75 462.046875 506.058594 Z M 463.074219 520.824219 C 461.546875 523.488281 458.761719 525.273438 455.203125 525.828125 C 448.414062 526.894531 439.664062 524.21875 434.863281 519.609375 C 431.574219 516.445312 430.101562 511.441406 431.292969 507.4375 C 432.238281 504.234375 434.753906 502.085938 438.363281 501.394531 C 439.21875 501.234375 440.097656 501.164062 440.976562 501.164062 C 443.871094 501.164062 446.816406 501.949219 449.429688 502.773438 C 452.984375 503.894531 457.042969 505.425781 460.152344 508.195312 C 461.722656 509.589844 462.859375 511.171875 463.535156 512.875 C 464.617188 515.59375 464.441406 518.417969 463.074219 520.824219 Z M 328.664062 420.644531 C 329.113281 420.644531 329.558594 420.617188 330.019531 420.566406 C 331.734375 420.375 334.980469 419.765625 337.46875 417.792969 C 339.527344 416.15625 340.582031 413.9375 340.527344 411.382812 C 340.472656 409.207031 339.402344 407.273438 337.496094 405.949219 C 337.171875 405.652344 336.863281 405.421875 336.535156 405.203125 C 332.289062 402.445312 324.988281 405 321.753906 408.964844 C 319.277344 412.003906 319.402344 415.441406 322.09375 418.144531 C 323.703125 419.765625 326.042969 420.644531 328.664062 420.644531 Z M 323.984375 410.761719 C 325.769531 408.570312 329.289062 406.867188 332.195312 406.867188 C 333.25 406.867188 334.210938 407.097656 334.996094 407.597656 C 335.238281 407.761719 335.453125 407.9375 335.65625 408.113281 C 335.710938 408.152344 335.765625 408.207031 335.820312 408.234375 C 336.644531 408.800781 337.644531 409.816406 337.6875 411.4375 C 337.726562 413.113281 337.078125 414.453125 335.710938 415.535156 C 334.304688 416.644531 332.128906 417.441406 329.71875 417.699219 C 327.460938 417.957031 325.378906 417.359375 324.132812 416.101562 C 322.484375 414.480469 322.429688 412.667969 323.984375 410.761719 Z M 462.980469 444.6875 C 462.601562 444.671875 462.210938 444.699219 461.777344 444.753906 C 459.449219 444.769531 457.476562 445.742188 456.191406 447.511719 C 454.691406 449.582031 454.296875 452 455.054688 454.515625 C 455.972656 457.546875 458.300781 459.898438 459.597656 461.035156 C 461.574219 462.75 463.886719 463.683594 466.105469 463.683594 C 466.578125 463.683594 467.050781 463.644531 467.511719 463.5625 C 471.257812 462.859375 473.3125 460.113281 473.015625 456.191406 C 472.609375 451.082031 468.050781 444.820312 462.980469 444.6875 Z M 466.984375 460.738281 C 465.253906 461.0625 463.195312 460.359375 461.480469 458.871094 C 459.652344 457.273438 458.3125 455.382812 457.785156 453.679688 C 457.273438 452.015625 457.515625 450.542969 458.503906 449.1875 C 459.449219 447.890625 460.816406 447.621094 461.816406 447.621094 C 461.832031 447.621094 461.84375 447.621094 461.859375 447.621094 C 461.910156 447.621094 461.992188 447.621094 462.0625 447.605469 C 462.332031 447.566406 462.613281 447.554688 462.914062 447.554688 C 466.386719 447.648438 469.863281 452.597656 470.160156 456.410156 C 470.335938 458.84375 469.28125 460.304688 466.984375 460.738281 Z M 342.921875 436.667969 C 345.367188 441.605469 343.367188 447.378906 343.285156 447.621094 C 343.082031 448.203125 342.527344 448.582031 341.933594 448.582031 C 341.769531 448.582031 341.609375 448.554688 341.460938 448.5 C 340.714844 448.242188 340.324219 447.417969 340.59375 446.675781 C 340.609375 446.632812 342.269531 441.765625 340.351562 437.925781 C 339.378906 435.980469 337.617188 434.601562 335.101562 433.789062 C 326.515625 431.042969 323.066406 441.429688 322.929688 441.875 C 322.6875 442.617188 321.890625 443.035156 321.132812 442.792969 C 320.375 442.550781 319.96875 441.753906 320.199219 440.996094 C 320.28125 440.726562 322.375 434.273438 327.554688 431.597656 C 330.113281 430.273438 332.9375 430.097656 335.957031 431.058594 C 339.269531 432.113281 341.59375 433.992188 342.921875 436.667969 Z M 440.449219 474.933594 C 440.554688 474.703125 443.140625 469.160156 448.332031 467.308594 C 451.144531 466.308594 454.136719 466.578125 457.21875 468.105469 C 460.058594 469.511719 461.964844 471.609375 462.886719 474.324219 C 464.753906 479.855469 461.761719 485.941406 461.640625 486.195312 C 461.398438 486.695312 460.882812 486.996094 460.355469 486.996094 C 460.140625 486.996094 459.921875 486.941406 459.722656 486.847656 C 459.015625 486.496094 458.71875 485.644531 459.070312 484.925781 C 459.273438 484.507812 464.023438 474.664062 455.933594 470.660156 C 453.566406 469.5 451.335938 469.269531 449.292969 469.984375 C 445.25 471.417969 443.058594 476.070312 443.042969 476.109375 C 442.707031 476.828125 441.867188 477.136719 441.152344 476.8125 C 440.449219 476.503906 440.125 475.648438 440.449219 474.933594 Z M 609.875 326.429688 C 560.777344 312.152344 515.792969 364.222656 508.289062 373.46875 C 497.226562 358.203125 481.144531 346.402344 458.761719 337.03125 C 460.097656 335.90625 461.25 334.476562 461.546875 332.769531 C 461.789062 331.324219 461.355469 329.890625 460.289062 328.621094 C 458.640625 326.671875 456.082031 326.375 453.785156 326.605469 C 454.324219 325.902344 454.691406 325.117188 454.890625 324.292969 C 455.054688 324.078125 455.203125 323.847656 455.351562 323.617188 C 456.894531 321.25 457.433594 318.453125 456.828125 315.964844 C 456.300781 313.789062 454.972656 312.015625 452.984375 310.851562 C 448.441406 308.214844 443.316406 310.097656 440.257812 313.136719 C 440.191406 313.207031 440.109375 313.285156 440 313.394531 C 439.433594 313.800781 438.894531 314.246094 438.378906 314.679688 C 438.082031 314.921875 437.769531 315.179688 437.460938 315.421875 C 435.375 317.058594 433.265625 318.453125 430.980469 319.667969 C 430.980469 319.667969 430.96875 319.683594 430.953125 319.683594 C 432.859375 317.855469 434.78125 315.355469 433.738281 312.476562 C 433.105469 310.746094 431.804688 309.703125 430.15625 309.648438 C 427.574219 309.5 426.289062 311.027344 425.152344 312.328125 L 424.839844 312.679688 C 423.488281 314.207031 422.09375 315.476562 420.703125 316.464844 C 419.28125 317.480469 417.738281 318.34375 416.128906 319.074219 C 415.914062 319.167969 415.15625 319.507812 414.316406 319.859375 C 414.238281 319.886719 414.089844 319.980469 414.019531 320.019531 C 413.710938 320.15625 413.316406 320.292969 412.761719 320.425781 C 412.207031 320.601562 412.003906 320.617188 412.003906 320.617188 C 411.925781 320.617188 411.84375 320.628906 411.761719 320.644531 C 410.4375 320.886719 409.136719 320.96875 408.664062 320.992188 C 393.800781 317.519531 376.882812 315.058594 358.367188 319.113281 C 358.378906 302.890625 355.5 239.472656 310.933594 219.761719 C 283.546875 207.6875 236.96875 235.714844 218.613281 275.347656 C 208.742188 296.65625 194.835938 350.253906 276.148438 390.859375 C 275.769531 391.617188 275.378906 392.386719 275.027344 393.117188 C 265.421875 413.019531 256.253906 442.457031 267.074219 469.621094 C 272.875 484.167969 284.492188 497.488281 300.695312 508.15625 C 303.171875 509.777344 305.6875 511.304688 308.203125 512.738281 C 298.976562 517.539062 291.78125 528.179688 288.160156 534.453125 C 280.964844 546.894531 274.972656 559.996094 270.15625 573.53125 C 264.113281 571.625 258.296875 572.164062 252.816406 575.207031 C 243.105469 580.601562 236.492188 592.824219 232.652344 602.140625 C 227.835938 613.824219 225.296875 625.816406 224.578125 632.523438 C 221.332031 663.324219 225.550781 691.679688 236.804688 714.542969 C 244.433594 730.066406 255.484375 743.074219 268.453125 752.417969 C 263.246094 752.902344 258.1875 754.230469 253.144531 756.542969 C 250.4375 757.785156 243.648438 760.894531 241.578125 765.722656 C 240.320312 766.464844 238.996094 767.140625 237.671875 767.683594 C 235.453125 768.589844 235.4375 772.347656 238.292969 772.226562 C 239.46875 772.171875 240.605469 772.035156 241.714844 771.832031 C 242.511719 773.46875 243.933594 774.417969 245.71875 774.445312 C 246.503906 774.632812 247.300781 774.605469 248.042969 774.375 C 248.625 774.199219 249.207031 774.011719 249.789062 773.820312 C 250.234375 773.742188 250.679688 773.644531 251.128906 773.566406 C 250.953125 773.753906 250.789062 773.957031 250.628906 774.144531 C 249.992188 774.890625 249.613281 775.824219 249.492188 776.78125 C 248.207031 777.808594 247.082031 779.011719 246.285156 780.164062 C 244.433594 782.828125 248.042969 786.195312 250.667969 784.542969 C 251.886719 783.773438 253.101562 782.949219 254.386719 782.285156 C 254.425781 782.257812 254.46875 782.246094 254.507812 782.230469 C 258.351562 781.949219 262.164062 781.296875 265.871094 780.296875 C 264.71875 782.273438 263.882812 784.488281 264.382812 786.652344 C 264.53125 787.289062 264.789062 787.84375 265.097656 788.355469 C 264.503906 789.15625 264.003906 790.019531 263.785156 790.964844 C 263.097656 793.980469 266.125 796.199219 268.832031 794.847656 C 270.480469 794.023438 271.578125 792.238281 272.644531 790.761719 C 272.957031 790.683594 273.269531 790.613281 273.566406 790.492188 C 276.554688 789.304688 279.285156 786.921875 281.707031 784.828125 L 282.734375 783.933594 C 286.347656 780.867188 289.644531 777.351562 292.664062 773.496094 C 297.015625 777.230469 301.710938 780.054688 306.769531 781.949219 C 309.285156 782.894531 312.234375 783.355469 315.398438 783.355469 C 316.628906 783.355469 317.898438 783.273438 319.171875 783.136719 C 322.199219 783.894531 324.539062 786.042969 326.230469 788.667969 C 329.382812 793.550781 336.671875 789.277344 334.007812 784.125 C 333.210938 782.570312 332.15625 781.191406 330.949219 779.988281 C 331.167969 779.890625 331.382812 779.8125 331.585938 779.714844 C 332.535156 779.285156 333.425781 778.824219 334.292969 778.335938 C 334.804688 778.714844 335.320312 779.082031 335.804688 779.472656 C 337.714844 780.988281 339.5 783.125 341.730469 784.125 C 343.503906 784.910156 345.476562 784.910156 346.921875 783.449219 C 348.207031 782.164062 348.640625 779.824219 347.601562 778.257812 C 346.03125 775.929688 343.570312 774.445312 341.148438 773.089844 C 341.664062 772.535156 342.136719 771.96875 342.570312 771.402344 C 344.042969 772.738281 345.515625 774.226562 347.277344 775.011719 C 349.046875 775.796875 351.023438 775.796875 352.46875 774.335938 C 352.859375 773.941406 353.171875 773.429688 353.390625 772.886719 C 360.449219 776.242188 367.996094 777.757812 375.597656 778.230469 C 373.214844 780.191406 370.644531 782.488281 369.984375 785.367188 C 369.753906 786.371094 370.457031 787.421875 371.539062 787.410156 C 374.867188 787.371094 377.921875 784.921875 380.53125 782.855469 C 381.667969 784.207031 382.980469 785.261719 384.457031 786.019531 C 383.128906 787.976562 381.980469 790.046875 381.953125 792.46875 C 381.941406 794.617188 384.210938 795.644531 385.984375 794.78125 C 388.605469 793.496094 390.3125 790.546875 391.703125 787.882812 C 392.328125 787.925781 392.949219 787.949219 393.570312 787.949219 C 394.800781 787.949219 396.003906 787.855469 397.183594 787.734375 C 396.898438 788.328125 396.628906 788.910156 396.355469 789.480469 C 395.167969 791.953125 393.53125 795.171875 395.316406 797.742188 C 395.828125 798.484375 396.503906 798.699219 397.359375 798.578125 C 400.441406 798.132812 401.660156 794.671875 402.671875 792.144531 C 403.417969 790.261719 404.308594 788.277344 404.796875 786.234375 C 416.332031 783.097656 431.441406 776.253906 441.746094 769.441406 C 443.167969 769.277344 448.375 768.574219 452.121094 767.15625 C 452.484375 768.359375 453 769.535156 453.6875 770.671875 C 454.742188 772.414062 456.175781 773.929688 457.933594 775.1875 C 458.964844 780.621094 461.925781 786.015625 466.347656 790.453125 L 466.765625 791.140625 C 467.363281 792.117188 468.324219 792.847656 469.484375 793.238281 C 469.890625 793.5625 470.296875 793.859375 470.714844 794.15625 C 470.769531 794.199219 470.839844 794.226562 470.90625 794.265625 C 470.972656 794.429688 471.027344 794.589844 471.109375 794.753906 C 472.203125 797.023438 473.976562 799.1875 476.652344 799.335938 C 478.992188 799.472656 480.046875 797.160156 479.777344 795.226562 C 479.601562 793.914062 478.492188 792.886719 477.75 791.777344 C 478.277344 790.804688 478.613281 789.777344 478.75 788.679688 C 480.617188 789.667969 482.550781 790.546875 484.539062 791.289062 C 485.539062 791.667969 486.527344 791.710938 487.433594 791.492188 C 488.027344 793.375 488.609375 795.46875 490.207031 796.605469 C 490.964844 797.144531 492.046875 796.863281 492.667969 796.28125 C 494.914062 794.226562 493.777344 790.183594 492.4375 787.882812 C 492.953125 787.34375 493.382812 786.71875 493.667969 786.015625 C 493.980469 785.261719 494.101562 784.476562 494.046875 783.707031 C 495.792969 784.109375 497.589844 784.328125 499.363281 784.367188 C 500.09375 785.015625 500.851562 785.625 501.472656 786.234375 C 503.339844 788.03125 505.21875 790.953125 507.910156 791.195312 C 509.03125 791.304688 510.007812 790.332031 510.332031 789.355469 C 511.167969 786.773438 508.789062 783.894531 506.585938 781.921875 C 506.71875 781.625 506.839844 781.3125 506.921875 780.972656 C 507.410156 778.878906 506.53125 776.527344 504.839844 775.402344 C 503.121094 774.253906 501.40625 773.117188 499.671875 771.984375 C 498.089844 770.941406 496.507812 769.886719 494.925781 768.832031 C 508.640625 760.03125 521.746094 748.414062 536.015625 732.445312 C 553.339844 713.058594 564.226562 695.964844 570.257812 678.660156 C 578.007812 656.457031 577.210938 633.496094 568.082031 615.675781 C 557.679688 595.394531 535.269531 582.605469 514.792969 585.265625 C 512.425781 585.578125 510.183594 586.078125 508.003906 586.699219 L 508.597656 586.335938 C 508.503906 586.1875 499.6875 571.707031 493.34375 561.632812 C 487.921875 553.003906 486.960938 543.136719 486.8125 540.972656 C 487.824219 540.375 488.828125 539.769531 489.800781 539.121094 C 511.386719 524.785156 521.070312 500.054688 525.382812 479.421875 C 540.667969 483.167969 554.054688 484.804688 565.753906 484.804688 C 622.152344 484.804688 639.507812 447.121094 644.632812 428.300781 C 656.183594 386.222656 638.613281 334.785156 609.875 326.429688 Z M 221.210938 276.535156 C 238.644531 238.90625 284.15625 211.078125 309.757812 222.410156 C 353.441406 241.746094 355.578125 305.296875 355.484375 319.832031 C 352.683594 320.535156 349.859375 321.414062 346.992188 322.441406 C 346.910156 319.628906 346.640625 316.800781 346.140625 313.988281 C 343.785156 300.820312 338.890625 291.125 329.761719 281.59375 C 318.425781 269.75 298.953125 266.085938 283.453125 272.871094 C 268.492188 279.429688 257.671875 295.183594 256.511719 312.070312 C 255.386719 328.335938 262.894531 345.089844 276.09375 355.796875 C 280.867188 359.664062 286.347656 362.722656 292.175781 364.84375 C 286.117188 372.875 281.261719 380.949219 277.433594 388.289062 C 221.683594 360.394531 201.167969 319.789062 221.210938 276.535156 Z M 344.152344 323.523438 C 340.257812 325.078125 336.308594 326.929688 332.289062 329.175781 C 316.234375 338.125 303.710938 350.160156 294.042969 362.464844 C 288.171875 360.449219 282.667969 357.460938 277.90625 353.59375 C 265.421875 343.453125 258.324219 327.621094 259.378906 312.273438 C 260.460938 296.425781 270.601562 281.648438 284.613281 275.507812 C 289.496094 273.371094 294.785156 272.34375 300.074219 272.34375 C 310.433594 272.34375 320.738281 276.292969 327.71875 283.59375 C 336.550781 292.816406 341.066406 301.78125 343.339844 314.515625 C 343.855469 317.503906 344.125 320.519531 344.152344 323.523438 Z M 239.375 713.285156 C 228.367188 690.910156 224.238281 663.082031 227.433594 632.820312 C 228.839844 619.433594 237.546875 586.957031 254.210938 577.695312 C 257.117188 576.074219 260.160156 575.261719 263.300781 575.261719 C 265.234375 575.261719 267.207031 575.585938 269.222656 576.207031 C 252.128906 626.167969 251.261719 681.796875 267.816406 731.933594 C 270.726562 740.761719 274.121094 748.484375 277.933594 755.136719 C 261.972656 746.023438 248.289062 731.417969 239.375 713.285156 Z M 280.894531 781.785156 L 279.855469 782.691406 C 278.351562 784.003906 276.703125 785.410156 275.027344 786.519531 C 275.078125 786.371094 275.132812 786.234375 275.1875 786.070312 C 275.90625 783.558594 273.050781 781.449219 270.820312 782.71875 C 269.359375 783.558594 268.25 784.664062 267.167969 785.921875 C 266.734375 783.652344 269.019531 780.609375 270.550781 778.582031 C 270.929688 778.082031 270.929688 777.390625 270.5625 776.878906 C 270.292969 776.5 269.859375 776.296875 269.414062 776.296875 C 269.25 776.296875 269.101562 776.324219 268.941406 776.375 C 266.003906 777.40625 262.988281 778.160156 259.917969 778.6875 C 260.636719 776.566406 259.324219 773.957031 256.617188 773.902344 C 255.929688 773.890625 255.226562 773.984375 254.535156 774.160156 C 255.210938 773.46875 255.914062 772.808594 256.644531 772.171875 C 257.144531 771.738281 257.292969 771.023438 256.984375 770.425781 C 256.671875 769.832031 256.023438 769.535156 255.375 769.699219 C 253.277344 770.210938 251.195312 770.65625 249.195312 771.035156 C 249.125 771.050781 249.070312 771.0625 249.003906 771.089844 C 248.410156 771.28125 247.828125 771.46875 247.230469 771.65625 C 246.878906 771.765625 246.542969 771.710938 246.3125 771.644531 C 246.175781 771.605469 246.015625 771.589844 245.878906 771.589844 C 245.472656 771.605469 245.015625 771.535156 244.636719 771.105469 C 245.109375 770.953125 245.570312 770.792969 246.027344 770.601562 C 247.285156 770.089844 248.773438 769.617188 249.625 768.519531 C 250.410156 767.507812 251.128906 766.058594 250.734375 764.734375 C 250.328125 763.328125 249.179688 762.789062 247.921875 762.761719 C 249.558594 761.570312 251.695312 760.367188 254.347656 759.152344 C 260.257812 756.445312 266.167969 755.121094 272.375 755.082031 C 275.160156 756.878906 278.015625 758.527344 280.9375 759.988281 C 283.910156 764.449219 287.117188 768.316406 290.566406 771.605469 C 287.632812 775.363281 284.414062 778.785156 280.894531 781.785156 Z M 490.773438 563.335938 C 496.683594 572.734375 504.757812 585.957031 505.882812 587.78125 C 490.449219 594.609375 479.601562 618.015625 479.128906 619.058594 C 478.804688 619.773438 479.117188 620.625 479.832031 620.949219 C 480.023438 621.042969 480.222656 621.085938 480.425781 621.085938 C 480.96875 621.085938 481.496094 620.773438 481.726562 620.246094 C 481.847656 619.988281 493.65625 594.503906 509.128906 589.582031 C 509.328125 589.511719 509.492188 589.417969 509.640625 589.28125 C 511.453125 588.796875 513.292969 588.390625 515.242188 588.132812 C 516.929688 587.917969 518.636719 587.808594 520.339844 587.808594 C 538.179688 587.808594 556.613281 599.464844 565.621094 617.015625 C 574.398438 634.132812 575.140625 656.265625 567.648438 677.738281 C 561.738281 694.679688 551.039062 711.460938 533.972656 730.566406 C 519.242188 747.050781 505.785156 758.828125 491.640625 767.613281 C 491.234375 767.871094 490.976562 768.316406 490.964844 768.804688 C 490.949219 769.292969 491.191406 769.75 491.597656 770.023438 C 493.789062 771.480469 495.980469 772.941406 498.183594 774.390625 C 499.902344 775.523438 501.621094 776.660156 503.339844 777.808594 C 503.960938 778.214844 504.3125 779.1875 504.246094 780.054688 C 503.027344 779.257812 501.605469 778.636719 500.214844 778.324219 C 499.078125 778.082031 496.710938 778.40625 496.765625 780.054688 C 496.777344 780.515625 496.902344 780.933594 497.050781 781.351562 C 495.414062 781.136719 493.804688 780.757812 492.261719 780.21875 C 491.679688 780.015625 491.042969 780.203125 490.664062 780.675781 C 490.285156 781.148438 490.261719 781.824219 490.585938 782.339844 L 490.882812 782.800781 C 491.421875 783.664062 491.289062 784.460938 491.070312 784.976562 C 490.992188 785.164062 490.882812 785.355469 490.773438 785.53125 C 489.449219 784.058594 487.757812 782.894531 485.742188 783.03125 C 484.902344 783.082031 484.457031 783.746094 484.59375 784.542969 C 484.851562 786.085938 485.660156 787.410156 486.378906 788.777344 C 486.148438 788.777344 485.890625 788.734375 485.605469 788.628906 C 482.984375 787.640625 480.453125 786.421875 478.085938 784.988281 C 477.613281 784.707031 477.019531 784.71875 476.558594 785.03125 C 476.097656 785.339844 475.855469 785.882812 475.9375 786.4375 C 475.976562 786.667969 475.964844 786.882812 475.976562 787.097656 C 474.652344 784.882812 470.527344 784.746094 470.039062 787.761719 C 469.890625 788.652344 469.890625 789.480469 469.933594 790.277344 C 469.648438 790.101562 469.417969 789.898438 469.257812 789.640625 L 468.769531 788.828125 C 468.714844 788.734375 468.632812 788.640625 468.550781 788.546875 C 464.320312 784.328125 461.535156 779.203125 460.707031 774.105469 C 460.640625 773.714844 460.425781 773.363281 460.085938 773.144531 C 458.4375 772.0625 457.125 770.726562 456.191406 769.183594 C 455.488281 768.019531 455.015625 766.789062 454.703125 765.519531 C 454.839844 765.140625 454.839844 764.707031 454.621094 764.328125 C 454.230469 763.640625 453.363281 763.410156 452.675781 763.789062 C 450.632812 764.953125 447.019531 765.722656 444.382812 766.167969 C 446.414062 763.625 448.480469 761.070312 450.511719 758.570312 C 463.144531 743.0625 476.207031 727.023438 481.550781 707.445312 C 487.824219 684.472656 486.890625 660 478.941406 638.5 C 476.382812 631.589844 472.339844 625.128906 468.445312 618.882812 C 462.25 608.957031 456.394531 599.585938 455.691406 588.335938 C 455.636719 587.550781 454.960938 586.929688 454.175781 587 C 453.390625 587.050781 452.78125 587.726562 452.835938 588.511719 C 453.582031 600.492188 459.898438 610.605469 466.011719 620.394531 C 469.835938 626.519531 473.785156 632.847656 476.25 639.488281 C 483.996094 660.417969 484.902344 684.285156 478.789062 706.675781 C 473.597656 725.6875 460.734375 741.480469 448.292969 756.757812 C 445.683594 759.960938 442.992188 763.261719 440.433594 766.535156 C 440.300781 766.695312 440.21875 766.886719 440.175781 767.074219 C 430.414062 773.511719 416.304688 779.960938 405.214844 783.136719 C 405.214844 782.933594 405.214844 782.730469 405.203125 782.527344 C 405.054688 780.691406 403.160156 780.027344 401.78125 781.109375 C 400.589844 782.042969 399.65625 783.285156 398.859375 784.625 C 397.074219 784.910156 395.113281 785.113281 393.152344 785.070312 C 394.058594 782.933594 395.019531 779.582031 392.433594 779.164062 C 389.539062 778.6875 387.675781 781.472656 386.1875 783.609375 C 384.941406 783.015625 383.820312 782.191406 382.871094 781.109375 C 385.617188 779.1875 388.824219 777.1875 389.851562 774.066406 C 390.394531 772.429688 388.90625 770.238281 387.078125 770.425781 C 384.535156 770.699219 382.453125 772.238281 380.492188 773.96875 C 380.75 768.46875 384.617188 762.152344 389.039062 755.945312 C 405.148438 733.394531 420.335938 708.054688 422.351562 675.671875 C 422.40625 674.886719 421.796875 674.210938 421.011719 674.15625 C 420.214844 674.074219 419.550781 674.710938 419.5 675.496094 C 418.335938 694.207031 413.5625 716.707031 386.714844 754.285156 C 383.128906 759.300781 377.164062 767.667969 377.625 775.429688 C 369.429688 775.105469 361.289062 773.605469 353.847656 769.898438 C 353.726562 769.847656 353.617188 769.777344 353.496094 769.710938 C 353.414062 769.496094 353.308594 769.292969 353.171875 769.101562 C 351.550781 766.683594 348.953125 765.179688 346.4375 763.773438 C 346.246094 763.667969 346.058594 763.558594 345.867188 763.464844 C 347.113281 754.027344 340.1875 744.628906 331.640625 740.328125 C 330.816406 739.910156 329.992188 739.394531 329.179688 738.816406 C 329.125 738.746094 329.085938 738.679688 329.015625 738.625 C 285.0625 702.523438 305.753906 576.25 305.96875 574.976562 C 306.105469 574.195312 305.578125 573.464844 304.792969 573.328125 C 304.007812 573.191406 303.277344 573.71875 303.144531 574.503906 C 303.089844 574.828125 297.734375 607.035156 297.976562 643.355469 C 298.289062 689.785156 307.121094 721.667969 324.230469 738.207031 C 318.847656 738.355469 309.554688 739.773438 305.539062 747.304688 C 305.171875 747.996094 305.429688 748.875 306.132812 749.238281 C 306.347656 749.347656 306.578125 749.402344 306.808594 749.402344 C 307.324219 749.402344 307.808594 749.132812 308.066406 748.644531 C 312.367188 740.574219 324.90625 740.953125 327.488281 741.128906 C 328.433594 741.816406 329.394531 742.410156 330.355469 742.898438 C 337.617188 746.550781 343.625 754.269531 343.152344 762.085938 C 341.703125 761.476562 340.1875 761.125 338.6875 761.558594 C 337.144531 762.015625 336.117188 763.679688 336.578125 765.261719 C 337.144531 767.25 338.78125 768.398438 340.378906 769.574219 C 339.851562 770.277344 339.242188 770.96875 338.566406 771.644531 C 336.835938 770.777344 334.96875 770.128906 333.128906 770.671875 C 331.585938 771.128906 330.558594 772.792969 331.019531 774.375 C 331.234375 775.105469 331.601562 775.714844 332.046875 776.269531 C 331.503906 776.550781 330.976562 776.824219 330.410156 777.078125 C 329.773438 777.378906 329.097656 777.621094 328.449219 777.878906 C 325.324219 775.726562 321.539062 774.511719 317.765625 774.320312 C 314.046875 774.144531 312.910156 777.796875 314.167969 780.394531 C 311.828125 780.296875 309.636719 779.933594 307.78125 779.242188 C 291.632812 773.1875 279.082031 756.945312 270.523438 730.972656 C 249.421875 667.058594 256.941406 594.097656 290.621094 535.820312 C 294.324219 529.410156 301.886719 518.242188 311.285156 514.375 C 318.441406 518.253906 325.472656 521.40625 331.425781 523.921875 C 319.023438 552.058594 312.585938 583.738281 312.789062 615.648438 C 312.910156 634.296875 315.289062 652.617188 319.875 670.113281 C 326.121094 693.949219 335.320312 710.621094 348.003906 721.089844 C 356.972656 728.484375 366.765625 731.582031 375.757812 731.582031 C 385.402344 731.582031 394.140625 728.039062 400.007812 722.453125 C 410.585938 712.394531 415.359375 695.574219 414.628906 671.03125 C 414.128906 654.210938 411.976562 637.136719 409.910156 620.613281 C 406.867188 596.410156 403.742188 571.40625 405.824219 547.164062 C 415.292969 549.136719 427.585938 551.355469 440.257812 551.640625 C 441.164062 551.667969 442.070312 551.667969 442.976562 551.667969 C 458.464844 551.667969 472.421875 548.542969 483.890625 542.582031 C 484.296875 546.527344 485.714844 555.304688 490.773438 563.335938 Z M 358.09375 501.042969 C 358.175781 501.207031 365.5625 514.929688 384.441406 514.929688 C 387.714844 514.929688 391.324219 514.523438 395.300781 513.550781 C 396.074219 513.359375 396.546875 512.589844 396.355469 511.820312 C 396.167969 511.050781 395.398438 510.574219 394.625 510.765625 C 387.429688 512.507812 381.589844 512.347656 376.882812 511.25 L 384.765625 486.886719 C 391.691406 488.886719 399.144531 488.980469 405.839844 486.765625 C 407.296875 488.183594 408.625 489.765625 409.789062 491.496094 C 414.113281 497.960938 416.578125 506.601562 417.117188 517.1875 C 417.5625 525.828125 416.386719 532.0625 413.4375 536.835938 C 410.789062 541.132812 407.851562 543.488281 404.242188 544.230469 C 403.632812 544.351562 403.171875 544.867188 403.105469 545.5 C 400.726562 570.515625 403.957031 596.207031 407.070312 621.03125 C 409.136719 637.488281 411.273438 654.496094 411.761719 671.179688 C 412.464844 694.871094 407.976562 710.972656 398.019531 720.453125 C 387.566406 730.390625 367.128906 733.242188 349.804688 718.953125 C 337.605469 708.878906 328.707031 692.695312 322.621094 669.449219 C 318.101562 652.183594 315.75 634.09375 315.628906 615.691406 C 315.425781 583.753906 321.945312 552.03125 334.574219 523.867188 C 334.804688 523.351562 334.710938 522.746094 334.332031 522.324219 C 331.964844 519.6875 330.949219 516.039062 331.195312 511.15625 C 331.476562 505.558594 334.074219 499.757812 339.351562 492.902344 C 345.816406 484.507812 352.765625 478.800781 360.003906 475.949219 C 361.949219 475.175781 363.953125 474.648438 365.953125 474.3125 C 369.957031 479.625 375.675781 483.628906 382.035156 485.980469 L 374.109375 510.441406 C 364.695312 507.195312 360.839844 500.164062 360.597656 499.703125 C 360.230469 499 359.367188 498.730469 358.675781 499.097656 C 358.015625 499.476562 357.742188 500.339844 358.09375 501.042969 Z M 524.042969 471.296875 C 523.773438 473.027344 523.476562 474.691406 523.152344 476.339844 C 522.800781 476.515625 522.503906 476.828125 522.394531 477.246094 C 522.273438 477.71875 522.421875 478.179688 522.71875 478.515625 C 515.808594 512.144531 500.390625 528.722656 488.257812 536.78125 C 475.695312 545.121094 459.125 549.3125 440.3125 548.855469 C 429.25 548.597656 418.429688 546.839844 409.585938 545.082031 C 411.898438 543.609375 413.953125 541.40625 415.847656 538.335938 C 420.148438 531.386719 420.242188 522.851562 419.957031 517.039062 C 419.390625 505.777344 416.832031 496.890625 412.152344 489.902344 C 411.125 488.359375 409.976562 486.941406 408.71875 485.628906 C 410.152344 484.980469 411.546875 484.222656 412.871094 483.332031 C 421.863281 477.300781 426.84375 467.363281 428.53125 457.140625 C 430.222656 446.917969 428.953125 436.304688 427.328125 425.851562 C 426.570312 420.984375 425.707031 415.996094 423.042969 411.585938 C 417.792969 402.878906 403.796875 398.550781 394.570312 402.703125 C 389.878906 404.8125 386.320312 408.421875 382.925781 411.992188 C 375.652344 419.671875 368.550781 427.664062 364.128906 437.035156 C 359.691406 446.402344 358.136719 457.398438 362.097656 467.46875 C 362.679688 468.957031 363.410156 470.378906 364.222656 471.730469 C 362.4375 472.09375 360.679688 472.609375 358.960938 473.285156 C 351.128906 476.367188 343.988281 482.222656 337.089844 491.160156 C 333.535156 495.769531 328.761719 502.839844 328.339844 511.007812 C 328.152344 514.550781 328.597656 517.566406 329.652344 520.109375 C 321.390625 516.523438 311.503906 511.820312 302.25 505.734375 C 286.535156 495.390625 275.28125 482.519531 269.710938 468.523438 C 263.949219 454.070312 260.636719 429.460938 277.582031 394.320312 C 287.035156 374.726562 304.429688 347.941406 333.667969 331.621094 C 361.761719 315.949219 387.09375 318.882812 408.179688 323.820312 C 408.300781 323.847656 408.433594 323.859375 408.554688 323.859375 C 408.625 323.859375 410.316406 323.78125 412.128906 323.46875 C 412.503906 323.441406 412.964844 323.347656 413.492188 323.183594 C 414.128906 323.023438 414.65625 322.847656 415.117188 322.644531 C 415.238281 322.589844 415.347656 322.535156 415.453125 322.46875 C 416.304688 322.117188 417.035156 321.792969 417.265625 321.683594 C 419.050781 320.886719 420.742188 319.914062 422.324219 318.789062 C 423.894531 317.667969 425.449219 316.25 426.949219 314.570312 L 427.273438 314.191406 C 428.355469 312.949219 428.832031 312.40625 430.019531 312.488281 C 430.210938 312.488281 430.695312 312.515625 431.035156 313.4375 C 431.699219 315.273438 429.101562 317.519531 427.53125 318.882812 C 425.882812 320.304688 424.175781 321.480469 422.472656 322.359375 C 421.851562 322.671875 421.554688 323.386719 421.757812 324.050781 C 421.960938 324.710938 422.621094 325.132812 423.296875 325.050781 C 426.367188 324.671875 429.492188 323.683594 432.304688 322.183594 C 434.742188 320.886719 437 319.410156 439.21875 317.652344 C 439.554688 317.382812 439.867188 317.128906 440.191406 316.871094 C 440.71875 316.4375 441.234375 316.003906 441.761719 315.640625 C 441.839844 315.585938 442.003906 315.421875 442.070312 315.355469 L 442.261719 315.152344 C 444.546875 312.882812 448.292969 311.433594 451.523438 313.3125 C 452.824219 314.070312 453.6875 315.207031 454.027344 316.613281 C 454.433594 318.332031 454.027344 320.359375 452.929688 322.046875 C 452.753906 322.304688 452.578125 322.5625 452.390625 322.820312 C 452.253906 322.996094 452.160156 323.210938 452.132812 323.429688 C 452 324.15625 451.621094 324.820312 451.011719 325.414062 C 449.957031 326.417969 448.78125 327.363281 447.496094 328.242188 C 446.914062 328.648438 446.695312 329.417969 447.019531 330.054688 C 447.332031 330.6875 448.074219 331.011719 448.738281 330.785156 L 449.265625 330.609375 C 449.578125 330.5 449.886719 330.40625 450.199219 330.308594 C 451.726562 329.835938 456.394531 328.417969 458.125 330.457031 C 458.828125 331.285156 458.816406 331.890625 458.746094 332.269531 C 458.542969 333.460938 457.21875 334.867188 455.09375 336.097656 C 454.621094 336.367188 454.351562 336.894531 454.390625 337.4375 C 454.433594 337.976562 454.785156 338.449219 455.285156 338.652344 C 484.402344 350.390625 502.945312 366.007812 513.644531 387.789062 C 528.371094 417.875 527.441406 449.8125 524.042969 471.296875 Z M 516.050781 386.328125 C 518.40625 383.3125 521.070312 380.515625 524.070312 378 C 534.011719 369.710938 543.25 365.777344 555.949219 364.398438 C 571.109375 362.761719 587.164062 371.835938 594.117188 385.964844 C 600.878906 399.675781 599.109375 417.507812 589.734375 430.339844 C 580.660156 442.753906 565.066406 450.285156 548.945312 450.015625 C 542.140625 449.890625 535.324219 448.351562 528.996094 445.632812 C 529.050781 427.472656 526.046875 406.625 516.1875 386.558594 C 516.144531 386.492188 516.09375 386.410156 516.050781 386.328125 Z M 641.941406 427.597656 C 629.347656 473.824219 587.136719 491.632812 526.019531 476.664062 C 526.34375 474.988281 526.628906 473.339844 526.871094 471.742188 C 527.941406 464.96875 528.765625 457.179688 528.953125 448.757812 C 535.3125 451.324219 542.113281 452.773438 548.902344 452.894531 C 549.214844 452.894531 549.511719 452.90625 549.824219 452.90625 C 566.5 452.90625 582.605469 444.96875 592.0625 432.058594 C 602.054688 418.402344 603.910156 399.375 596.699219 384.734375 C 589.222656 369.5625 571.964844 359.828125 555.652344 361.585938 C 542.519531 363.003906 532.539062 367.265625 522.257812 375.824219 C 519.433594 378.175781 516.902344 380.773438 514.617188 383.558594 C 513.199219 380.921875 511.667969 378.378906 510.007812 375.917969 C 515.335938 369.222656 560.34375 315.019531 609.089844 329.175781 C 635.949219 336.988281 652.855469 387.585938 641.941406 427.597656 Z M 641.941406 427.597656 " fill-opacity="1" fill-rule="nonzero"/></g></svg>