<svg xmlns="http://www.w3.org/2000/svg" xmlns:xlink="http://www.w3.org/1999/xlink" width="1080" zoomAndPan="magnify" viewBox="0 0 810 809.999993" height="1080" preserveAspectRatio="xMidYMid meet" version="1.0"><path fill="#91bc5e" d="M 679.808594 388.742188 C 670.980469 372.925781 648.851562 365.261719 633.226562 374.285156 C 641.671875 355.558594 636.039062 331.492188 620.222656 318.390625 C 604.402344 305.195312 579.65625 304.226562 562.769531 315.96875 C 565.679688 313.929688 555.199219 296.65625 553.742188 294.621094 C 549.65625 289.066406 544.496094 284.300781 538.667969 280.558594 C 555.429688 281.261719 572.394531 277.597656 586.449219 268.515625 C 601.585938 258.71875 612.75 242.125 614.980469 224.269531 C 615.371094 221.550781 615.464844 218.835938 615.371094 216.019531 C 615.273438 214.175781 615.078125 212.332031 614.789062 210.488281 C 611.972656 191.664062 597.898438 174.492188 579.460938 170.222656 C 601.6875 161.292969 609.644531 133.347656 608.285156 109.378906 C 607.316406 93.5625 602.753906 76.582031 590.234375 66.878906 C 572.863281 53.488281 548.019531 58.921875 526.859375 65.035156 C 532.683594 41.550781 509.292969 16.03125 485.421875 19.816406 C 479.597656 20.789062 474.355469 22.921875 469.601562 26.027344 C 457.859375 8.558594 432.429688 1.863281 412.535156 10.015625 C 390.992188 18.652344 377.015625 41.261719 374.492188 64.355469 C 360.808594 49.316406 338.101562 44.367188 318.789062 50.285156 C 312.285156 52.226562 306.269531 55.527344 301.027344 59.988281 C 280.453125 77.746094 277.445312 112.289062 294.71875 133.347656 C 288.507812 133.734375 282.394531 135.578125 276.957031 138.488281 C 263.277344 145.769531 253.085938 159.933594 251.921875 175.460938 C 250.769531 190.632812 258.421875 205.671875 270.347656 215.035156 C 267.125 220.246094 264.328125 225.746094 262.011719 231.257812 C 235.808594 216.410156 200.484375 218.15625 177.675781 237.757812 C 163.21875 250.175781 155.355469 269.679688 156.035156 288.507812 C 156.328125 299.375 159.433594 310.046875 165.644531 318.976562 C 158.460938 322.757812 151.863281 327.902344 146.332031 333.917969 C 131.96875 349.347656 124.203125 370.695312 128.085938 391.265625 C 133.519531 419.792969 163.992188 442.304688 192.332031 435.609375 C 189.90625 452.980469 187.867188 472.289062 198.15625 486.554688 C 205.140625 496.355469 216.789062 501.691406 228.53125 504.3125 C 252.308594 509.746094 278.316406 504.894531 298.601562 491.308594 C 299.765625 499.75 307.820312 505.960938 316.167969 507.320312 C 324.609375 508.773438 333.148438 506.15625 340.816406 502.566406 C 357.988281 494.453125 371.691406 480.554688 380.949219 464.09375 C 382.886719 472.210938 385.835938 480.082031 389.925781 487.425781 C 397.105469 500.238281 407.394531 511.589844 420.6875 517.800781 C 433.984375 523.914062 450.484375 524.105469 462.808594 516.148438 C 463.679688 537.691406 484.839844 555.449219 506.382812 555.160156 C 528.027344 554.867188 547.628906 538.46875 554.421875 517.992188 C 558.59375 528.085938 570.824219 533.035156 581.597656 531.578125 C 592.464844 530.027344 601.878906 523.425781 609.742188 515.957031 C 621.386719 504.796875 630.605469 487.71875 629.34375 472.582031 C 628.859375 466.953125 626.917969 461.617188 623.132812 456.863281 C 641.183594 458.21875 660.207031 452.300781 672.433594 439.007812 C 679.421875 431.34375 683.691406 421.054688 684.46875 410.867188 C 684.953125 403.105469 683.496094 395.4375 679.808594 388.742188 Z M 679.808594 388.742188 " fill-opacity="1" fill-rule="nonzero"/><path fill="#789b45" d="M 251.921875 175.460938 C 253.085938 159.933594 263.277344 145.769531 276.957031 138.488281 C 287.730469 169.832031 313.933594 194.867188 342.660156 212.527344 C 391.960938 242.707031 451.648438 255.613281 509.101562 248.429688 C 546.5625 243.773438 582.859375 230.671875 614.789062 210.488281 C 615.078125 212.332031 615.273438 214.175781 615.371094 216.019531 C 615.464844 218.835938 615.371094 221.550781 614.980469 224.269531 C 612.75 242.125 601.589844 258.71875 586.449219 268.515625 C 568.882812 279.871094 546.757812 282.878906 526.179688 279.289062 C 523.269531 278.800781 520.164062 278.21875 517.445312 279.386719 C 514.828125 280.644531 513.273438 283.363281 511.722656 285.886719 C 501.046875 303.351562 482.023438 315.578125 461.742188 318.101562 C 441.359375 320.722656 420.011719 313.539062 405.257812 299.277344 C 403.21875 297.238281 401.183594 295.105469 398.464844 294.230469 C 394.386719 292.871094 390.019531 294.910156 386.140625 296.65625 C 361.488281 307.621094 331.308594 308.59375 308.695312 293.941406 C 286.082031 279.191406 274.824219 247.070312 287.828125 223.589844 C 266.476562 218.933594 250.269531 197.195312 251.921875 175.460938 Z M 571.503906 479.664062 C 529.480469 481.121094 486.78125 474.230469 448.640625 456.570312 C 438.835938 452.011719 429.324219 446.769531 421.078125 439.785156 C 406.324219 427.460938 396.621094 410.285156 388.371094 392.816406 C 388.082031 393.402344 387.886719 394.078125 387.59375 394.664062 C 383.710938 404.269531 380.703125 414.84375 379.25 425.132812 C 379.121094 426.046875 379.066406 426.976562 378.960938 427.894531 C 335.125 438.113281 288.765625 437.921875 245.125 426.492188 C 236.199219 424.160156 227.367188 421.347656 218.921875 417.660156 C 198.835938 408.828125 181.464844 394.371094 168.457031 376.808594 C 163.121094 369.53125 155.746094 349.832031 146.332031 333.917969 C 131.96875 349.347656 124.203125 370.695312 128.085938 391.265625 C 133.519531 419.792969 163.992188 442.304688 192.332031 435.609375 C 189.90625 452.980469 187.867188 472.289062 198.15625 486.554688 C 205.144531 496.355469 216.789062 501.691406 228.53125 504.3125 C 252.308594 509.746094 278.316406 504.894531 298.601562 491.308594 C 299.765625 499.75 307.820312 505.960938 316.167969 507.320312 C 324.609375 508.773438 333.148438 506.15625 340.816406 502.566406 C 357.988281 494.453125 371.691406 480.554688 380.949219 464.09375 C 382.886719 472.210938 385.835938 480.082031 389.925781 487.425781 C 397.105469 500.238281 407.394531 511.589844 420.691406 517.800781 C 433.984375 523.914062 450.484375 524.105469 462.808594 516.148438 C 463.679688 537.691406 484.839844 555.449219 506.382812 555.160156 C 528.027344 554.867188 547.628906 538.46875 554.421875 517.992188 C 558.597656 528.085938 570.824219 533.035156 581.597656 531.578125 C 592.464844 530.027344 601.878906 523.425781 609.742188 515.957031 C 621.386719 504.796875 630.605469 487.71875 629.34375 472.582031 C 610.324219 476.558594 591.011719 478.984375 571.503906 479.664062 Z M 571.503906 479.664062 " fill-opacity="1" fill-rule="nonzero"/><path fill="#a47052" d="M 513.191406 420.519531 C 497.179688 433.425781 483.882812 449.242188 470.6875 464.960938 C 459.234375 478.546875 447.78125 492.226562 436.332031 505.8125 C 430.410156 512.894531 426.625 516.875 426.335938 526.1875 L 426.335938 529.390625 C 426.140625 537.445312 426.042969 545.597656 426.042969 553.746094 C 425.75 590.523438 426.140625 627.300781 426.527344 664.078125 C 427.109375 710.847656 427.691406 757.519531 428.277344 804.292969 C 405.566406 802.835938 382.757812 804.097656 360.148438 807.882812 C 358.886719 807.882812 367.425781 630.5 368.492188 613.328125 C 370.917969 574.902344 374.605469 536.378906 376.742188 497.855469 C 377.90625 478.640625 378.585938 459.332031 378.585938 440.121094 C 378.488281 429.929688 378.488281 419.644531 377.226562 409.554688 C 376.0625 400.722656 374.121094 392.085938 372.082031 383.449219 C 368.980469 369.671875 365.777344 355.796875 361.019531 342.503906 C 356.070312 328.527344 349.472656 315.234375 342.289062 302.328125 C 338.3125 295.246094 331.128906 279.914062 341.027344 273.898438 C 351.898438 284.378906 361.019531 296.605469 368.007812 309.898438 C 371.113281 315.816406 374.800781 321.152344 377.90625 327.074219 C 380.140625 331.34375 387.613281 341.628906 387.613281 346.578125 C 389.554688 318.242188 391.394531 289.910156 392.949219 261.476562 C 393.824219 244.882812 394.113281 112.53125 407.605469 119.128906 C 413.621094 122.039062 414.785156 182.589844 415.660156 193.359375 C 418.183594 223.828125 420.707031 254.296875 423.230469 284.765625 C 426.140625 318.921875 428.953125 353.078125 429.539062 387.625 C 429.925781 412.269531 429.148438 437.015625 428.273438 461.660156 C 428.46875 461.46875 428.664062 461.273438 428.953125 461.078125 C 454.382812 440.3125 483.980469 423.625 512.511719 407.417969 C 512.707031 411.785156 513 416.152344 513.191406 420.519531 Z M 513.191406 420.519531 " fill-opacity="1" fill-rule="nonzero"/></svg>