<svg xmlns="http://www.w3.org/2000/svg" xmlns:xlink="http://www.w3.org/1999/xlink" width="1080" zoomAndPan="magnify" viewBox="0 0 810 809.999993" height="1080" preserveAspectRatio="xMidYMid meet" version="1.0"><defs><clipPath id="458735e4e1"><path d="M 173 238 L 637 238 L 637 632.457031 L 173 632.457031 Z M 173 238 " clip-rule="nonzero"/></clipPath></defs><path fill="#9caab5" d="M 205.171875 272.453125 C 202.628906 270.03125 200.03125 267.710938 197.375 265.503906 C 179.246094 250.433594 156.941406 241.773438 133.441406 239.789062 C 117.613281 238.457031 87.441406 238.28125 76.125 251.929688 C 67.742188 262.042969 75.765625 270.328125 84.671875 274.5 C 69.550781 274.390625 54.371094 279.253906 42.351562 288.453125 C 36.582031 292.859375 29.039062 300.554688 31.394531 308.554688 C 33.898438 317.074219 49.515625 320.753906 56.941406 317.011719 C 39.25 325.925781 21.816406 342.808594 18.511719 363.261719 C 17.378906 370.285156 19.457031 378.304688 25.386719 382.242188 C 31.109375 386.039062 38.578125 383.914062 44.5 381.613281 C 40.589844 394.722656 41.121094 414.117188 41.484375 420.15625 C 42.847656 442.867188 51.832031 464.707031 67.921875 480.941406 C 92.148438 505.394531 129.191406 515.734375 162.976562 509.164062 C 196.765625 502.597656 226.664062 479.910156 243.757812 450.03125 C 276.679688 392.480469 250.945312 316.066406 205.171875 272.453125 " fill-opacity="1" fill-rule="nonzero"/><path fill="#eef2e4" d="M 195.789062 317.796875 C 194.203125 316.289062 192.582031 314.84375 190.925781 313.46875 C 179.628906 304.074219 165.722656 298.679688 151.070312 297.441406 C 141.207031 296.613281 122.402344 296.496094 115.34375 305.011719 C 110.121094 311.3125 115.125 316.472656 120.675781 319.078125 C 111.25 319.007812 101.789062 322.039062 94.289062 327.769531 C 90.695312 330.523438 85.996094 335.320312 87.460938 340.304688 C 89.027344 345.617188 98.757812 347.910156 103.386719 345.578125 C 92.355469 351.132812 81.488281 361.65625 79.433594 374.40625 C 78.726562 378.785156 80.023438 383.789062 83.714844 386.242188 C 87.285156 388.605469 91.945312 387.28125 95.632812 385.847656 C 93.191406 394.019531 93.523438 406.109375 93.75 409.875 C 94.601562 424.03125 100.207031 437.640625 110.230469 447.765625 C 125.332031 463.007812 148.421875 469.449219 169.484375 465.359375 C 190.546875 461.265625 209.183594 447.121094 219.835938 428.496094 C 240.367188 392.617188 224.324219 344.988281 195.789062 317.796875 " fill-opacity="1" fill-rule="nonzero"/><path fill="#9caab5" d="M 566.429688 450.03125 C 583.523438 479.910156 613.421875 502.597656 647.210938 509.164062 C 680.996094 515.734375 718.039062 505.394531 742.265625 480.941406 C 758.359375 464.707031 767.339844 442.867188 768.703125 420.15625 C 769.066406 414.117188 769.597656 394.722656 765.6875 381.613281 C 771.601562 383.914062 779.078125 386.039062 784.800781 382.242188 C 790.730469 378.304688 792.808594 370.285156 791.675781 363.261719 C 788.371094 342.808594 770.9375 325.925781 753.246094 317.011719 C 760.671875 320.753906 776.28125 317.074219 778.792969 308.554688 C 781.148438 300.554688 773.605469 292.859375 767.835938 288.453125 C 755.816406 279.253906 740.636719 274.390625 725.515625 274.5 C 734.417969 270.328125 742.445312 262.042969 734.0625 251.929688 C 722.746094 238.28125 692.574219 238.457031 676.746094 239.789062 C 653.246094 241.773438 630.941406 250.433594 612.8125 265.503906 C 610.15625 267.710938 607.558594 270.03125 605.015625 272.453125 C 559.242188 316.066406 533.507812 392.480469 566.429688 450.03125 " fill-opacity="1" fill-rule="nonzero"/><path fill="#eef2e4" d="M 590.351562 428.496094 C 601.003906 447.121094 619.644531 461.265625 640.703125 465.359375 C 661.765625 469.449219 684.855469 463.007812 699.960938 447.765625 C 709.984375 437.640625 715.585938 424.03125 716.4375 409.875 C 716.664062 406.109375 716.996094 394.019531 714.554688 385.847656 C 718.242188 387.28125 722.902344 388.605469 726.472656 386.242188 C 730.164062 383.789062 731.464844 378.785156 730.753906 374.40625 C 728.699219 361.65625 717.832031 351.132812 706.800781 345.578125 C 711.429688 347.910156 721.160156 345.617188 722.726562 340.304688 C 724.191406 335.320312 719.492188 330.523438 715.898438 327.769531 C 708.398438 322.039062 698.9375 319.007812 689.511719 319.078125 C 695.066406 316.472656 700.066406 311.3125 694.84375 305.011719 C 687.792969 296.496094 668.980469 296.613281 659.117188 297.441406 C 644.464844 298.679688 630.558594 304.074219 619.261719 313.46875 C 617.609375 314.84375 615.984375 316.289062 614.398438 317.796875 C 585.863281 344.988281 569.820312 392.617188 590.351562 428.496094 " fill-opacity="1" fill-rule="nonzero"/><g clip-path="url(#458735e4e1)"><path fill="#9caab5" d="M 636.597656 488.429688 C 636.597656 588.601562 532.949219 632.160156 405.09375 632.160156 C 277.238281 632.160156 173.589844 588.601562 173.589844 488.429688 C 173.589844 388.25 277.238281 238.769531 405.09375 238.769531 C 532.949219 238.769531 636.597656 388.25 636.597656 488.429688 " fill-opacity="1" fill-rule="nonzero"/></g><path fill="#0c0608" d="M 320.933594 452.273438 C 320.933594 466.257812 311.4375 477.59375 299.722656 477.59375 C 288.003906 477.59375 278.507812 466.257812 278.507812 452.273438 C 278.507812 438.296875 288.003906 426.960938 299.722656 426.960938 C 311.4375 426.960938 320.933594 438.296875 320.933594 452.273438 " fill-opacity="1" fill-rule="nonzero"/><path fill="#ffffff" d="M 313.359375 440.476562 C 313.359375 445.414062 309.359375 449.414062 304.417969 449.414062 C 299.480469 449.414062 295.480469 445.414062 295.480469 440.476562 C 295.480469 435.539062 299.480469 431.539062 304.417969 431.539062 C 309.359375 431.539062 313.359375 435.539062 313.359375 440.476562 " fill-opacity="1" fill-rule="nonzero"/><path fill="#0c0608" d="M 489.253906 452.273438 C 489.253906 466.257812 498.75 477.59375 510.464844 477.59375 C 522.183594 477.59375 531.679688 466.257812 531.679688 452.273438 C 531.679688 438.296875 522.183594 426.960938 510.464844 426.960938 C 498.75 426.960938 489.253906 438.296875 489.253906 452.273438 " fill-opacity="1" fill-rule="nonzero"/><path fill="#ffffff" d="M 496.828125 440.476562 C 496.828125 445.414062 500.828125 449.414062 505.769531 449.414062 C 510.707031 449.414062 514.707031 445.414062 514.707031 440.476562 C 514.707031 435.539062 510.707031 431.539062 505.769531 431.539062 C 500.828125 431.539062 496.828125 435.539062 496.828125 440.476562 " fill-opacity="1" fill-rule="nonzero"/><path fill="#eef2e4" d="M 483.28125 551.632812 C 483.28125 584.203125 448.277344 610.597656 405.09375 610.597656 C 361.910156 610.597656 326.90625 584.203125 326.90625 551.632812 C 326.90625 519.074219 361.910156 492.675781 405.09375 492.675781 C 448.277344 492.675781 483.28125 519.074219 483.28125 551.632812 " fill-opacity="1" fill-rule="nonzero"/><path fill="#292b35" d="M 458.730469 483.070312 C 458.730469 525.371094 434.714844 534.367188 405.09375 534.367188 C 375.472656 534.367188 351.457031 525.371094 351.457031 483.070312 C 351.457031 440.773438 366.933594 406.484375 405.09375 406.484375 C 445.320312 406.484375 458.730469 440.773438 458.730469 483.070312 " fill-opacity="1" fill-rule="nonzero"/><path fill="#0c0608" d="M 267.132812 375.824219 C 265.757812 367.191406 290.222656 357.199219 301.089844 354.605469 C 311.957031 352.011719 322.089844 355.460938 323.726562 362.316406 C 325.359375 369.164062 317.878906 376.820312 307.011719 379.414062 C 296.144531 382.007812 268.496094 384.390625 267.132812 375.824219 " fill-opacity="1" fill-rule="nonzero"/><path fill="#0c0608" d="M 543.054688 375.824219 C 544.429688 367.191406 519.964844 357.199219 509.097656 354.605469 C 498.230469 352.011719 488.097656 355.460938 486.460938 362.316406 C 484.828125 369.164062 492.308594 376.820312 503.175781 379.414062 C 514.042969 382.007812 541.691406 384.390625 543.054688 375.824219 " fill-opacity="1" fill-rule="nonzero"/><path fill="#292b35" d="M 415.230469 580.074219 C 405.582031 580.074219 395.96875 575.523438 390.15625 567.710938 C 389.324219 566.597656 389.5625 565.011719 390.675781 564.175781 C 391.792969 563.34375 393.378906 563.578125 394.214844 564.699219 C 400.261719 572.835938 411.769531 576.835938 421.570312 574.203125 C 431.375 571.578125 439.335938 562.355469 440.507812 552.28125 C 440.675781 550.898438 441.9375 549.917969 443.304688 550.070312 C 444.695312 550.226562 445.691406 551.484375 445.523438 552.863281 C 444.097656 565.113281 434.789062 575.890625 422.882812 579.085938 C 420.378906 579.75 417.800781 580.074219 415.230469 580.074219 " fill-opacity="1" fill-rule="nonzero"/></svg>