<svg xmlns="http://www.w3.org/2000/svg" xmlns:xlink="http://www.w3.org/1999/xlink" width="140" zoomAndPan="magnify" viewBox="0 0 104.88 30.000001" height="40" preserveAspectRatio="xMidYMid meet" version="1.0"><metadata><ContainsAiGeneratedContent>Yes</ContainsAiGeneratedContent></metadata><defs><g/><clipPath id="4599b25b72"><path d="M 1.632812 0 L 103.128906 0 L 103.128906 29.03125 L 1.632812 29.03125 Z M 1.632812 0 " clip-rule="nonzero"/></clipPath><clipPath id="9ec0cfa61f"><path d="M 3.566406 2.902344 L 38.40625 2.902344 L 38.40625 27.582031 L 3.566406 27.582031 Z M 3.566406 2.902344 " clip-rule="nonzero"/></clipPath><clipPath id="8c35c9d98d"><path d="M 29 4 L 38.40625 4 L 38.40625 20 L 29 20 Z M 29 4 " clip-rule="nonzero"/></clipPath></defs><g clip-path="url(#4599b25b72)"><path fill="#ffffff" d="M 1.632812 0 L 103.246094 0 L 103.246094 29.03125 L 1.632812 29.03125 Z M 1.632812 0 " fill-opacity="1" fill-rule="nonzero"/><path fill="#ffffff" d="M 1.632812 0 L 103.246094 0 L 103.246094 29.03125 L 1.632812 29.03125 Z M 1.632812 0 " fill-opacity="1" fill-rule="nonzero"/></g><g fill="#000000" fill-opacity="1"><g transform="translate(40.705792, 20.150959)"><g><path d="M 9.1875 -7.015625 C 9.9375 -6.191406 10.3125 -5.1875 10.3125 -4 C 10.3125 -2.8125 9.9375 -1.804688 9.1875 -0.984375 C 8.4375 -0.171875 7.484375 0.234375 6.328125 0.234375 C 5.265625 0.234375 4.390625 -0.144531 3.703125 -0.90625 L 3.671875 -0.90625 L 3.671875 0 L 0.9375 0 L 0.9375 -13.4375 L 3.703125 -13.4375 L 3.703125 -7.25 C 4.390625 -7.914062 5.265625 -8.25 6.328125 -8.25 C 7.484375 -8.25 8.4375 -7.835938 9.1875 -7.015625 Z M 6.859375 -2.640625 C 7.203125 -2.992188 7.375 -3.445312 7.375 -4 C 7.375 -4.550781 7.191406 -5.003906 6.828125 -5.359375 C 6.472656 -5.710938 6.03125 -5.890625 5.5 -5.890625 C 4.976562 -5.890625 4.535156 -5.710938 4.171875 -5.359375 C 3.816406 -5.003906 3.640625 -4.550781 3.640625 -4 C 3.640625 -3.457031 3.8125 -3.007812 4.15625 -2.65625 C 4.507812 -2.300781 4.957031 -2.125 5.5 -2.125 C 6.0625 -2.125 6.515625 -2.296875 6.859375 -2.640625 Z M 6.859375 -2.640625 "/></g></g></g><g fill="#000000" fill-opacity="1"><g transform="translate(51.380244, 20.150959)"><g><path d="M 1.6875 -0.953125 C 0.800781 -1.742188 0.359375 -2.757812 0.359375 -4 C 0.359375 -5.238281 0.820312 -6.253906 1.75 -7.046875 C 2.675781 -7.847656 3.820312 -8.25 5.1875 -8.25 C 6.53125 -8.25 7.660156 -7.847656 8.578125 -7.046875 C 9.503906 -6.242188 9.96875 -5.226562 9.96875 -4 C 9.96875 -2.769531 9.515625 -1.753906 8.609375 -0.953125 C 7.710938 -0.160156 6.570312 0.234375 5.1875 0.234375 C 3.75 0.234375 2.582031 -0.160156 1.6875 -0.953125 Z M 3.828125 -5.359375 C 3.472656 -5.003906 3.296875 -4.550781 3.296875 -4 C 3.296875 -3.445312 3.46875 -2.992188 3.8125 -2.640625 C 4.15625 -2.296875 4.609375 -2.125 5.171875 -2.125 C 5.710938 -2.125 6.15625 -2.300781 6.5 -2.65625 C 6.851562 -3.007812 7.03125 -3.457031 7.03125 -4 C 7.03125 -4.550781 6.847656 -5.003906 6.484375 -5.359375 C 6.128906 -5.710938 5.691406 -5.890625 5.171875 -5.890625 C 4.640625 -5.890625 4.191406 -5.710938 3.828125 -5.359375 Z M 3.828125 -5.359375 "/></g></g></g><g fill="#000000" fill-opacity="1"><g transform="translate(61.710866, 20.150959)"><g><path d="M 0.9375 0 L 0.9375 -8.015625 L 3.703125 -8.015625 L 3.703125 -6.859375 L 3.734375 -6.859375 C 3.753906 -6.898438 3.785156 -6.953125 3.828125 -7.015625 C 3.878906 -7.078125 3.984375 -7.1875 4.140625 -7.34375 C 4.296875 -7.5 4.460938 -7.640625 4.640625 -7.765625 C 4.816406 -7.890625 5.046875 -8 5.328125 -8.09375 C 5.609375 -8.195312 5.894531 -8.25 6.1875 -8.25 C 6.488281 -8.25 6.785156 -8.207031 7.078125 -8.125 C 7.367188 -8.039062 7.582031 -7.957031 7.71875 -7.875 L 7.9375 -7.75 L 6.78125 -5.40625 C 6.4375 -5.695312 5.957031 -5.84375 5.34375 -5.84375 C 5.007812 -5.84375 4.722656 -5.769531 4.484375 -5.625 C 4.242188 -5.476562 4.070312 -5.300781 3.96875 -5.09375 C 3.875 -4.882812 3.804688 -4.707031 3.765625 -4.5625 C 3.722656 -4.414062 3.703125 -4.300781 3.703125 -4.21875 L 3.703125 0 Z M 0.9375 0 "/></g></g></g><g fill="#000000" fill-opacity="1"><g transform="translate(69.493995, 20.150959)"><g><path d="M 0.9375 0 L 0.9375 -8.015625 L 3.703125 -8.015625 L 3.703125 -6.859375 L 3.734375 -6.859375 C 3.753906 -6.898438 3.785156 -6.953125 3.828125 -7.015625 C 3.878906 -7.078125 3.984375 -7.1875 4.140625 -7.34375 C 4.296875 -7.5 4.460938 -7.640625 4.640625 -7.765625 C 4.816406 -7.890625 5.046875 -8 5.328125 -8.09375 C 5.609375 -8.195312 5.894531 -8.25 6.1875 -8.25 C 6.488281 -8.25 6.785156 -8.207031 7.078125 -8.125 C 7.367188 -8.039062 7.582031 -7.957031 7.71875 -7.875 L 7.9375 -7.75 L 6.78125 -5.40625 C 6.4375 -5.695312 5.957031 -5.84375 5.34375 -5.84375 C 5.007812 -5.84375 4.722656 -5.769531 4.484375 -5.625 C 4.242188 -5.476562 4.070312 -5.300781 3.96875 -5.09375 C 3.875 -4.882812 3.804688 -4.707031 3.765625 -4.5625 C 3.722656 -4.414062 3.703125 -4.300781 3.703125 -4.21875 L 3.703125 0 Z M 0.9375 0 "/></g></g></g><g fill="#000000" fill-opacity="1"><g transform="translate(77.277123, 20.150959)"><g><path d="M 1.484375 -0.984375 C 0.734375 -1.804688 0.359375 -2.8125 0.359375 -4 C 0.359375 -5.1875 0.734375 -6.191406 1.484375 -7.015625 C 2.234375 -7.835938 3.1875 -8.25 4.34375 -8.25 C 5.40625 -8.25 6.28125 -7.914062 6.96875 -7.25 L 6.96875 -8.015625 L 9.734375 -8.015625 L 9.734375 0 L 7 0 L 7 -0.90625 L 6.96875 -0.90625 C 6.28125 -0.144531 5.40625 0.234375 4.34375 0.234375 C 3.1875 0.234375 2.234375 -0.171875 1.484375 -0.984375 Z M 3.828125 -5.359375 C 3.472656 -5.003906 3.296875 -4.550781 3.296875 -4 C 3.296875 -3.445312 3.46875 -2.992188 3.8125 -2.640625 C 4.15625 -2.296875 4.609375 -2.125 5.171875 -2.125 C 5.710938 -2.125 6.15625 -2.300781 6.5 -2.65625 C 6.851562 -3.007812 7.03125 -3.457031 7.03125 -4 C 7.03125 -4.550781 6.847656 -5.003906 6.484375 -5.359375 C 6.128906 -5.710938 5.691406 -5.890625 5.171875 -5.890625 C 4.640625 -5.890625 4.191406 -5.710938 3.828125 -5.359375 Z M 3.828125 -5.359375 "/></g></g></g><g fill="#000000" fill-opacity="1"><g transform="translate(87.951575, 20.150959)"><g><path d="M 0.9375 0 L 0.9375 -8.015625 L 3.703125 -8.015625 L 3.703125 -6.859375 L 3.734375 -6.859375 C 3.753906 -6.898438 3.785156 -6.953125 3.828125 -7.015625 C 3.878906 -7.078125 3.984375 -7.1875 4.140625 -7.34375 C 4.296875 -7.5 4.460938 -7.640625 4.640625 -7.765625 C 4.816406 -7.890625 5.046875 -8 5.328125 -8.09375 C 5.609375 -8.195312 5.894531 -8.25 6.1875 -8.25 C 6.488281 -8.25 6.785156 -8.207031 7.078125 -8.125 C 7.367188 -8.039062 7.582031 -7.957031 7.71875 -7.875 L 7.9375 -7.75 L 6.78125 -5.40625 C 6.4375 -5.695312 5.957031 -5.84375 5.34375 -5.84375 C 5.007812 -5.84375 4.722656 -5.769531 4.484375 -5.625 C 4.242188 -5.476562 4.070312 -5.300781 3.96875 -5.09375 C 3.875 -4.882812 3.804688 -4.707031 3.765625 -4.5625 C 3.722656 -4.414062 3.703125 -4.300781 3.703125 -4.21875 L 3.703125 0 Z M 0.9375 0 "/></g></g></g><g clip-path="url(#9ec0cfa61f)"><path fill="#000000" d="M 38.386719 6.308594 C 38.367188 7.21875 38.203125 8.164062 38.050781 9.109375 C 37.855469 10.339844 37.601562 11.5625 37.285156 12.773438 C 37.179688 13.167969 37.035156 13.542969 36.828125 13.894531 C 36.757812 14.015625 36.679688 14.132812 36.523438 14.121094 C 36.480469 14.222656 36.433594 14.320312 36.371094 14.414062 C 36.390625 14.429688 36.402344 14.445312 36.417969 14.460938 C 36.480469 14.546875 36.496094 14.640625 36.445312 14.734375 C 36.40625 14.804688 36.363281 14.878906 36.304688 14.9375 C 36.035156 15.199219 35.78125 15.480469 35.484375 15.707031 C 32.332031 18.09375 29.152344 20.445312 25.820312 22.582031 C 23.898438 23.8125 21.949219 24.996094 20 26.183594 C 19.441406 26.527344 18.847656 26.816406 18.261719 27.113281 C 17.910156 27.292969 17.535156 27.414062 17.148438 27.496094 C 16.785156 27.570312 16.429688 27.570312 16.066406 27.515625 C 15.21875 27.398438 14.390625 27.175781 13.558594 26.980469 C 11.234375 26.433594 8.933594 25.820312 6.648438 25.128906 C 6.097656 24.960938 5.558594 24.757812 5.027344 24.546875 C 4.785156 24.453125 4.554688 24.3125 4.335938 24.171875 C 3.792969 23.816406 3.566406 23.296875 3.582031 22.667969 C 3.585938 22.589844 3.597656 22.507812 3.601562 22.425781 C 3.65625 21.496094 3.886719 20.601562 4.117188 19.703125 C 4.453125 18.378906 4.839844 17.070312 5.300781 15.785156 C 5.34375 15.660156 5.382812 15.535156 5.453125 15.425781 C 5.480469 15.382812 5.539062 15.347656 5.597656 15.328125 C 5.667969 15.101562 5.804688 14.898438 5.96875 14.71875 C 5.917969 14.640625 5.921875 14.527344 6 14.414062 C 6.070312 14.308594 6.15625 14.207031 6.253906 14.121094 C 6.375 14.011719 6.511719 13.917969 6.644531 13.824219 C 9.589844 11.757812 12.640625 9.863281 15.769531 8.085938 C 18.242188 6.683594 20.738281 5.332031 23.308594 4.113281 C 24.019531 3.777344 24.742188 3.460938 25.484375 3.191406 C 25.953125 3.019531 26.4375 2.933594 26.933594 2.917969 C 27.378906 2.902344 27.824219 2.902344 28.265625 2.925781 C 29.140625 2.976562 30.011719 3.03125 30.882812 3.105469 C 31.554688 3.167969 32.222656 3.257812 32.890625 3.347656 C 33.675781 3.453125 34.457031 3.570312 35.238281 3.679688 C 35.878906 3.765625 36.5 3.917969 37.113281 4.105469 C 37.316406 4.164062 37.507812 4.265625 37.699219 4.363281 C 37.847656 4.441406 37.957031 4.5625 38.023438 4.71875 C 38.050781 4.78125 38.0625 4.84375 38.050781 4.90625 C 38.109375 4.992188 38.140625 5.09375 38.148438 5.203125 C 38.152344 5.203125 38.15625 5.203125 38.160156 5.203125 C 38.265625 5.214844 38.347656 5.277344 38.359375 5.386719 C 38.382812 5.578125 38.390625 5.773438 38.398438 5.964844 C 38.40625 6.0625 38.394531 6.164062 38.386719 6.308594 Z M 38.386719 6.308594 " fill-opacity="1" fill-rule="nonzero"/></g><path fill="#f58a81" d="M 6.3125 14.734375 C 6.320312 14.730469 6.328125 14.726562 6.335938 14.722656 C 7.476562 14.015625 8.625 13.308594 9.769531 12.601562 C 11.335938 11.640625 12.902344 10.675781 14.472656 9.722656 C 15.089844 9.347656 15.722656 9 16.367188 8.632812 C 16.65625 8.835938 16.984375 8.832031 17.3125 8.847656 C 17.839844 8.871094 18.367188 8.910156 18.890625 8.96875 C 19.496094 9.039062 20.097656 9.140625 20.703125 9.214844 C 21.617188 9.328125 22.523438 9.484375 23.425781 9.671875 C 24.859375 9.96875 26.292969 10.269531 27.730469 10.558594 C 27.933594 10.601562 28.144531 10.648438 28.398438 10.566406 C 28.378906 10.539062 28.363281 10.511719 28.347656 10.484375 C 28.476562 10.550781 28.601562 10.628906 28.683594 10.734375 C 27.277344 11.679688 25.890625 12.644531 24.507812 13.625 C 22.96875 14.71875 21.484375 15.878906 20.046875 17.101562 C 19.855469 17.265625 19.683594 17.441406 19.53125 17.632812 C 18.984375 17.792969 18.378906 17.714844 17.824219 17.535156 C 17.753906 17.398438 17.632812 17.371094 17.527344 17.34375 C 16.925781 17.175781 16.332031 16.96875 15.71875 16.863281 C 14.226562 16.609375 12.730469 16.390625 11.230469 16.179688 C 10.058594 16.007812 8.882812 15.847656 7.726562 15.59375 C 7.5 15.546875 7.277344 15.496094 7.050781 15.457031 C 6.964844 15.441406 6.867188 15.472656 6.851562 15.558594 C 6.847656 15.578125 6.847656 15.59375 6.847656 15.613281 C 6.691406 15.554688 6.582031 15.417969 6.488281 15.28125 C 6.359375 15.121094 6.308594 14.929688 6.3125 14.734375 Z M 6.3125 14.734375 " fill-opacity="1" fill-rule="nonzero"/><path fill="#3e85a1" d="M 36.625 6.042969 C 36.621094 6.03125 36.617188 6.023438 36.613281 6.015625 C 36.59375 5.992188 36.550781 5.964844 36.53125 5.972656 C 36.375 6.019531 36.210938 6.0625 36.074219 6.140625 C 35.328125 6.558594 34.578125 6.972656 33.851562 7.414062 C 32.101562 8.480469 30.378906 9.589844 28.683594 10.734375 C 28.601562 10.628906 28.476562 10.550781 28.347656 10.484375 C 28.320312 10.4375 28.296875 10.398438 28.261719 10.375 C 28.019531 10.230469 27.742188 10.175781 27.46875 10.117188 C 26.921875 10.003906 26.375 9.882812 25.828125 9.773438 C 24.730469 9.550781 23.636719 9.320312 22.535156 9.121094 C 21.660156 8.96875 20.777344 8.855469 19.898438 8.730469 C 18.9375 8.589844 17.976562 8.4375 17 8.476562 C 16.953125 8.476562 16.902344 8.457031 16.765625 8.425781 C 16.984375 8.292969 17.121094 8.210938 17.261719 8.128906 C 19.230469 7.007812 21.238281 5.957031 23.285156 4.976562 C 23.980469 4.644531 24.695312 4.351562 25.402344 4.042969 C 26.046875 3.757812 26.722656 3.644531 27.425781 3.671875 C 28.066406 3.699219 28.710938 3.71875 29.351562 3.765625 C 30.222656 3.828125 31.09375 3.898438 31.957031 3.996094 C 32.859375 4.09375 33.753906 4.226562 34.648438 4.355469 C 35.613281 4.496094 36.570312 4.664062 37.472656 5.039062 C 37.519531 5.058594 37.574219 5.078125 37.625 5.089844 C 37.46875 5.519531 37.035156 5.78125 36.625 6.042969 Z M 36.625 6.042969 " fill-opacity="1" fill-rule="nonzero"/><path fill="#f3757a" d="M 29.371094 19.085938 L 29.375 19.238281 C 28.757812 19.671875 28.140625 20.101562 27.519531 20.527344 C 24.984375 22.261719 22.359375 23.851562 19.734375 25.445312 C 19.328125 25.691406 18.914062 25.929688 18.492188 26.144531 C 18.128906 26.332031 17.75 26.492188 17.367188 26.640625 C 16.992188 26.789062 16.597656 26.832031 16.199219 26.765625 C 15.828125 26.703125 15.453125 26.640625 15.085938 26.554688 C 12.601562 25.976562 10.128906 25.359375 7.683594 24.636719 C 6.992188 24.433594 6.304688 24.207031 5.621094 23.964844 C 5.332031 23.859375 5.058594 23.699219 4.789062 23.546875 C 4.511719 23.386719 4.382812 23.128906 4.363281 22.816406 C 4.359375 22.71875 4.355469 22.621094 4.367188 22.523438 C 4.4375 22.023438 4.484375 21.519531 4.59375 21.03125 C 4.867188 19.8125 5.175781 18.597656 5.464844 17.382812 C 5.570312 16.9375 5.671875 16.496094 5.765625 16.050781 C 5.800781 15.878906 5.808594 15.699219 5.816406 15.519531 C 5.820312 15.410156 5.734375 15.300781 5.648438 15.3125 C 5.632812 15.316406 5.613281 15.320312 5.597656 15.324219 C 5.667969 15.101562 5.804688 14.894531 5.96875 14.714844 C 5.984375 14.734375 5.996094 14.75 6.015625 14.765625 C 6.125 14.84375 6.214844 14.796875 6.3125 14.738281 C 6.304688 14.929688 6.359375 15.121094 6.488281 15.28125 C 6.582031 15.421875 6.691406 15.558594 6.847656 15.617188 C 6.851562 15.675781 6.871094 15.738281 6.90625 15.777344 C 6.96875 15.847656 7.058594 15.902344 7.148438 15.933594 C 7.304688 15.988281 7.464844 16.019531 7.625 16.058594 C 9.039062 16.398438 10.480469 16.542969 11.914062 16.738281 C 12.484375 16.816406 13.058594 16.875 13.628906 16.96875 C 14.84375 17.167969 16.058594 17.386719 17.277344 17.589844 C 17.449219 17.621094 17.632812 17.652344 17.847656 17.597656 C 17.839844 17.578125 17.832031 17.554688 17.824219 17.539062 C 18.375 17.714844 18.980469 17.792969 19.53125 17.632812 C 19.363281 17.851562 19.222656 18.085938 19.117188 18.34375 C 18.855469 18.992188 18.585938 19.636719 18.351562 20.296875 C 17.976562 21.335938 17.585938 22.371094 17.34375 23.453125 C 17.175781 24.195312 17 24.941406 16.832031 25.683594 C 16.816406 25.761719 16.816406 25.84375 16.820312 25.925781 C 16.824219 25.949219 16.855469 25.980469 16.882812 25.988281 C 16.910156 25.996094 16.960938 25.992188 16.96875 25.976562 C 17.046875 25.835938 17.140625 25.699219 17.183594 25.546875 C 17.296875 25.15625 17.398438 24.761719 17.484375 24.367188 C 17.871094 22.550781 18.5 20.808594 19.15625 19.074219 C 19.441406 18.324219 19.902344 17.730469 20.546875 17.226562 C 23.089844 15.234375 25.753906 13.402344 28.425781 11.585938 C 28.519531 11.523438 28.621094 11.472656 28.738281 11.40625 C 28.761719 11.488281 28.78125 11.546875 28.789062 11.609375 C 28.847656 12.242188 28.925781 12.871094 28.953125 13.503906 C 29.011719 14.832031 29.042969 16.167969 29.089844 17.496094 C 29.101562 17.871094 29.136719 18.242188 29.167969 18.613281 C 29.175781 18.726562 29.207031 18.835938 29.238281 18.945312 C 29.261719 19.011719 29.304688 19.078125 29.371094 19.085938 Z M 29.371094 19.085938 " fill-opacity="1" fill-rule="nonzero"/><g clip-path="url(#8c35c9d98d)"><path fill="#477a9a" d="M 38.152344 5.203125 C 38.042969 5.199219 37.96875 5.269531 37.933594 5.359375 C 37.902344 5.449219 37.890625 5.546875 37.878906 5.644531 C 37.769531 6.398438 37.679688 7.15625 37.546875 7.90625 C 37.257812 9.566406 36.898438 11.214844 36.472656 12.847656 C 36.394531 13.144531 36.359375 13.453125 36.316406 13.753906 C 36.289062 13.960938 36.355469 14.085938 36.488281 14.113281 C 36.5 14.117188 36.511719 14.117188 36.523438 14.121094 C 36.484375 14.21875 36.433594 14.320312 36.375 14.414062 C 36.300781 14.351562 36.195312 14.328125 36.113281 14.367188 C 35.996094 14.425781 35.882812 14.488281 35.773438 14.566406 C 35.164062 15.007812 34.546875 15.441406 33.945312 15.894531 C 32.4375 17.03125 30.917969 18.148438 29.375 19.238281 L 29.375 19.085938 C 29.386719 19.085938 29.402344 19.085938 29.417969 19.082031 C 29.464844 19.070312 29.53125 18.996094 29.535156 18.945312 C 29.5625 18.652344 29.601562 18.363281 29.59375 18.070312 C 29.5625 16.835938 29.503906 15.601562 29.476562 14.367188 C 29.449219 13.292969 29.394531 12.226562 29.09375 11.152344 C 29.253906 11.042969 29.371094 10.957031 29.496094 10.878906 C 30.503906 10.230469 31.507812 9.578125 32.523438 8.945312 C 33.722656 8.199219 34.933594 7.476562 36.066406 6.632812 C 36.210938 6.523438 36.355469 6.417969 36.492188 6.300781 C 36.550781 6.25 36.59375 6.171875 36.632812 6.101562 C 36.636719 6.089844 36.636719 6.0625 36.625 6.042969 C 37.035156 5.785156 37.46875 5.519531 37.625 5.09375 C 37.652344 5.101562 37.679688 5.109375 37.707031 5.113281 C 37.832031 5.136719 37.933594 5.097656 38.011719 4.996094 C 38.03125 4.96875 38.046875 4.9375 38.050781 4.90625 C 38.109375 4.992188 38.140625 5.09375 38.152344 5.203125 Z M 38.152344 5.203125 " fill-opacity="1" fill-rule="nonzero"/></g></svg>